<svg width="222" height="80" viewBox="0 0 222 80" fill="none" xmlns="http://www.w3.org/2000/svg">
<path fill-rule="evenodd" clip-rule="evenodd" d="M38.0418 66.8804L35.3762 76.1762L48.7074 79.9988L65.4209 21.7124V79.4879H79.7678V20.1116H65.88L70.5507 3.82292L57.2193 0L38.5107 65.2449L27.2477 25.967L14.3468 29.6663V8.82536H0V79.4879H14.3468V31.2902L25.577 70.4545L38.0418 66.8804ZM113.537 79.4988H119.521L109.966 66.342L118.456 57.5705H112.065L104.045 66.6865V57.5705H99.2839V79.4988H104.045V72.4818L106.708 69.7251L113.537 79.4988ZM120.836 79.4988H125.284V73.2023C125.284 69.2865 126.694 68.0335 129.889 68.0335C130.421 68.0335 130.986 68.0647 131.612 68.1273V63.5539C131.361 63.5224 131.142 63.5224 130.892 63.5224C127.101 63.5224 125.723 66.1227 125.19 67.4071V63.8358H120.836V79.4988ZM145.458 79.4988H151.065L143.641 70.0382L150.031 63.8358H144.581L138.284 70.1637V57.5705H133.836V79.4988H138.284V75.2073L140.571 73.0142L145.458 79.4988ZM158.834 80C163.627 80 167.073 76.7733 167.073 71.6671C167.073 66.6551 163.627 63.366 158.834 63.366C154.041 63.366 150.595 66.6551 150.595 71.6671C150.595 76.4914 154.041 80 158.834 80ZM158.834 76.4602C156.704 76.4602 155.232 74.9565 155.232 71.73C155.232 68.5033 156.704 66.8744 158.834 66.8744C160.964 66.8744 162.437 68.5033 162.437 71.73C162.437 74.9565 160.964 76.4602 158.834 76.4602ZM169.861 79.4988H174.309V72.0746C174.309 70.4142 174.34 67.0311 177.442 67.0311C178.977 67.0311 179.948 67.908 179.948 69.9756V79.4988H184.396V69.0045C184.396 65.59 182.861 63.366 179.227 63.366C176.345 63.366 174.841 65.1828 174.184 66.2479V63.8358H169.861V79.4988ZM195.266 80C200.059 80 203.505 76.7733 203.505 71.6671C203.505 66.6551 200.059 63.366 195.266 63.366C190.473 63.366 187.027 66.6551 187.027 71.6671C187.027 76.4914 190.473 80 195.266 80ZM195.266 76.4602C193.136 76.4602 191.663 74.9565 191.663 71.73C191.663 68.5033 193.136 66.8744 195.266 66.8744C197.396 66.8744 198.868 68.5033 198.868 71.73C198.868 74.9565 197.396 76.4602 195.266 76.4602ZM209.707 61.7682H215.095L218.541 57.7271H214.719L212.401 59.9514L210.083 57.7271H206.261L209.707 61.7682ZM212.338 79.9374C216.912 79.9374 219.606 77.9013 219.606 74.7686C219.606 71.7927 217.162 70.4456 214.218 69.8818L212.056 69.4743C210.365 69.1612 209.895 68.7541 209.895 67.9395C209.895 67.0937 210.615 66.4357 212.119 66.4357C213.685 66.4357 214.813 67.3441 215.283 68.6285L218.948 66.9684C218.259 65.4021 216.254 63.366 212.338 63.366C208.14 63.366 205.603 65.3395 205.603 68.3155C205.603 71.3852 207.514 72.4818 210.803 73.1397L213.027 73.5783C214.625 73.8914 214.97 74.5179 214.97 75.2384C214.97 76.1157 214.155 76.8047 212.589 76.8047C209.55 76.8047 209.08 74.5179 209.018 74.1733L204.977 75.4577C205.635 78.2144 208.642 79.9374 212.338 79.9374ZM104.045 49.5531H99.2839V27.6248H107.084L110.687 38.3072C111.72 41.3458 112.096 42.3482 112.347 42.9747C112.629 42.2856 112.973 41.3458 114.007 38.3072L117.672 27.6248H125.191V49.5531H120.429V31.6658L114.32 49.5531H110.091L104.045 31.6973V49.5531ZM139.099 47.0469C138.41 48.2061 137.001 50.0544 133.993 50.0544C131.017 50.0544 129.169 47.8615 129.169 44.447V33.8901H133.617V43.4133C133.617 45.5121 134.526 46.3578 135.967 46.3578C138.254 46.3578 139.099 44.1965 139.099 41.6277V33.8901H143.548V49.5531H139.099V47.0469ZM159.837 49.5531H146.461V45.6687L154.136 37.4299H146.837V33.8901H159.43V37.0854L151.128 46.0133H159.837V49.5531ZM176.941 45.4806C176.064 47.4855 174.091 50.0544 169.329 50.0544C164.505 50.0544 161.372 46.8276 161.372 41.6903C161.372 36.772 164.755 33.4203 169.298 33.4203C174.56 33.4203 177.317 37.5552 176.878 42.7866H165.82C165.946 45.5435 167.418 46.6712 169.329 46.6712C171.334 46.6712 172.305 45.418 172.963 43.9457L176.941 45.4806ZM169.298 36.6153C167.512 36.6153 166.29 37.6804 165.977 39.6542H172.493C172.305 37.7119 171.177 36.6153 169.298 36.6153ZM189.534 47.0469C188.845 48.2061 187.435 50.0544 184.428 50.0544C181.452 50.0544 179.604 47.8615 179.604 44.447V33.8901H184.052V43.4133C184.052 45.5121 184.96 46.3578 186.401 46.3578C188.688 46.3578 189.534 44.1965 189.534 41.6277V33.8901H193.982V49.5531H189.534V47.0469ZM202.283 49.5531H197.835V33.8901H202.158V36.1455C203.192 34.2661 204.915 33.4203 206.857 33.4203C208.956 33.4203 210.428 34.548 211.337 36.1455C212.778 34.1094 214.563 33.4203 216.599 33.4203C219.513 33.4203 221.768 34.9864 221.768 39.0903V49.5531H217.32V40.0299C217.32 37.9312 216.349 37.0854 214.876 37.0854C212.057 37.0854 211.994 39.9987 211.994 41.5651V49.5531H207.609V40.0299C207.609 37.9312 206.638 37.0854 205.165 37.0854C202.346 37.0854 202.283 39.9987 202.283 41.5651V49.5531Z" fill="#1A1C21"/>
</svg>
