<?xml version="1.0" encoding="UTF-8" standalone="no"?>
<!-- Created with Inkscape (http://www.inkscape.org/) -->

<svg
   width="49.954391mm"
   height="7.3889303mm"
   viewBox="0 0 49.954391 7.3889303"
   version="1.1"
   id="svg771"
   inkscape:version="1.2 (dc2aeda, 2022-05-15)"
   sodipodi:docname="logo-mzp.svg"
   xmlns:inkscape="http://www.inkscape.org/namespaces/inkscape"
   xmlns:sodipodi="http://sodipodi.sourceforge.net/DTD/sodipodi-0.dtd"
   xmlns="http://www.w3.org/2000/svg"
   xmlns:svg="http://www.w3.org/2000/svg">
  <sodipodi:namedview
     id="namedview773"
     pagecolor="#505050"
     bordercolor="#eeeeee"
     borderopacity="1"
     inkscape:showpageshadow="0"
     inkscape:pageopacity="0"
     inkscape:pagecheckerboard="0"
     inkscape:deskcolor="#505050"
     inkscape:document-units="mm"
     showgrid="false"
     inkscape:zoom="2.1227176"
     inkscape:cx="85.739148"
     inkscape:cy="127.90208"
     inkscape:window-width="2560"
     inkscape:window-height="1387"
     inkscape:window-x="0"
     inkscape:window-y="25"
     inkscape:window-maximized="1"
     inkscape:current-layer="layer1" />
  <defs
     id="defs768">
    <clipPath
       clipPathUnits="userSpaceOnUse"
       id="clipPath454">
      <path
         d="M 28.346,38.722 H 169.99 V 66.874 H 28.346 Z"
         id="path452" />
    </clipPath>
  </defs>
  <g
     inkscape:label="Layer 1"
     inkscape:groupmode="layer"
     id="layer1"
     transform="translate(-37.77743,-87.111769)">
    <path
       d="M 37.77743,88.300277 H 54.060946 V 87.111769 H 37.77743 Z"
       style="fill:#cee5b7;fill-opacity:1;fill-rule:nonzero;stroke:none;stroke-width:0.352778"
       id="path442" />
    <path
       d="M 70.89656,88.300277 H 54.612691 V 87.111769 H 70.89656 Z"
       style="fill:#7bc143;fill-opacity:1;fill-rule:nonzero;stroke:none;stroke-width:0.352778"
       id="path444" />
    <path
       d="M 71.44901,88.300277 H 87.731821 V 87.111769 H 71.44901 Z"
       style="fill:#467a26;fill-opacity:1;fill-rule:nonzero;stroke:none;stroke-width:0.352778"
       id="path446" />
    <g
       id="g448"
       transform="matrix(0.35277777,0,0,-0.35277777,27.771947,108.16096)">
      <g
         id="g450"
         clip-path="url(#clipPath454)">
        <g
           id="g456"
           transform="translate(43.0374,44.4426)">
          <path
             d="M 0,0 C -0.061,1.075 -0.12,2.271 -0.083,3.189 H -0.132 C -0.313,2.283 -0.531,1.317 -0.784,0.363 l -1.004,-3.817 h -0.591 l -0.955,3.66 C -3.6,1.244 -3.841,2.246 -3.998,3.189 h -0.037 c 0,-0.955 -0.047,-2.089 -0.096,-3.248 l -0.156,-3.444 h -0.834 l 0.483,8.141 h 1.003 l 0.953,-3.719 c 0.278,-1.076 0.484,-1.873 0.652,-2.803 h 0.037 c 0.157,0.93 0.339,1.703 0.603,2.803 l 0.919,3.719 h 1.039 l 0.471,-8.141 h -0.87 z"
             style="fill:#000000;fill-opacity:1;fill-rule:nonzero;stroke:none"
             id="path458" />
        </g>
        <path
           d="m 45.49,46.786 h 0.93 v -5.847 h -0.93 z m 1.003,1.511 c 0.012,-0.364 -0.218,-0.605 -0.569,-0.605 -0.3,0 -0.53,0.241 -0.53,0.605 0,0.361 0.241,0.603 0.542,0.603 0.339,0 0.557,-0.242 0.557,-0.603"
           style="fill:#000000;fill-opacity:1;fill-rule:nonzero;stroke:none"
           id="path460" />
        <g
           id="g462"
           transform="translate(47.8946,45.2758)">
          <path
             d="M 0,0 C 0,0.688 -0.036,1.04 -0.049,1.51 H 0.76 l 0.049,-0.7 h 0.024 c 0.254,0.47 0.725,0.797 1.341,0.797 0.809,0 1.414,-0.604 1.414,-2.018 V -4.337 H 2.657 v 3.77 c 0,0.687 -0.133,1.389 -0.81,1.389 -0.386,0 -0.76,-0.326 -0.881,-0.955 C 0.943,-0.277 0.93,-0.459 0.93,-0.652 V -4.337 H 0 Z"
             style="fill:#000000;fill-opacity:1;fill-rule:nonzero;stroke:none"
             id="path464" />
        </g>
        <path
           d="M 52.969,46.786 H 53.9 v -5.847 h -0.931 z m 1.002,1.511 c 0.012,-0.364 -0.218,-0.605 -0.568,-0.605 -0.302,0 -0.532,0.241 -0.532,0.605 0,0.361 0.242,0.603 0.545,0.603 0.337,0 0.555,-0.242 0.555,-0.603"
           style="fill:#000000;fill-opacity:1;fill-rule:nonzero;stroke:none"
           id="path466" />
        <g
           id="g468"
           transform="translate(55.2158,41.9063)">
          <path
             d="M 0,0 C 0.205,-0.133 0.567,-0.302 0.943,-0.302 1.473,-0.302 1.8,0.024 1.8,0.544 1.8,0.991 1.643,1.292 1.051,1.69 0.29,2.187 -0.12,2.681 -0.12,3.358 c 0,0.942 0.699,1.618 1.605,1.618 0.459,0 0.81,-0.157 1.052,-0.302 L 2.283,3.974 C 2.066,4.119 1.812,4.227 1.51,4.227 1.002,4.227 0.749,3.865 0.749,3.49 0.749,3.092 0.894,2.875 1.473,2.477 2.15,2.042 2.682,1.51 2.682,0.7 c 0,-1.171 -0.798,-1.739 -1.752,-1.739 -0.434,0 -0.906,0.133 -1.16,0.338 z"
             style="fill:#000000;fill-opacity:1;fill-rule:nonzero;stroke:none"
             id="path470" />
        </g>
        <g
           id="g472"
           transform="translate(60.1796,48.1507)">
          <path
             d="M 0,0 V -1.364 H 1.123 V -2.077 H 0 v -3.467 c 0,-0.76 0.278,-0.967 0.615,-0.967 0.146,0 0.267,0.012 0.376,0.037 L 1.028,-7.187 C 0.857,-7.246 0.64,-7.283 0.339,-7.283 c -0.363,0 -0.689,0.096 -0.918,0.35 -0.23,0.266 -0.352,0.664 -0.352,1.474 v 3.382 h -0.711 v 0.713 h 0.711 v 0.989 z"
             style="fill:#000000;fill-opacity:1;fill-rule:nonzero;stroke:none"
             id="path474" />
        </g>
        <g
           id="g476"
           transform="translate(64.6974,44.467)">
          <path
             d="M 0,0 C 0.024,1.172 -0.423,1.691 -0.87,1.691 -1.473,1.691 -1.788,0.797 -1.824,0 Z m -1.836,-0.688 c 0.012,-1.788 0.713,-2.174 1.389,-2.174 0.399,0 0.738,0.096 0.967,0.229 l 0.144,-0.688 c -0.326,-0.182 -0.82,-0.278 -1.279,-0.278 -1.403,0 -2.128,1.148 -2.128,2.935 0,1.896 0.798,3.08 1.971,3.08 1.195,0 1.666,-1.256 1.666,-2.586 0,-0.216 0,-0.374 -0.012,-0.518 z"
             style="fill:#000000;fill-opacity:1;fill-rule:nonzero;stroke:none"
             id="path478" />
        </g>
        <g
           id="g480"
           transform="translate(66.7634,45.2758)">
          <path
             d="M 0,0 C 0,0.496 -0.035,1.075 -0.047,1.51 H 0.786 L 0.835,0.592 h 0.022 c 0.195,0.556 0.689,1.015 1.233,1.015 0.074,0 0.132,-0.012 0.193,-0.012 V 0.641 C 2.222,0.653 2.164,0.653 2.09,0.653 1.499,0.653 1.064,0.109 0.967,-0.567 0.943,-0.724 0.931,-0.906 0.931,-1.099 V -4.337 H 0 Z"
             style="fill:#000000;fill-opacity:1;fill-rule:nonzero;stroke:none"
             id="path482" />
        </g>
        <g
           id="g484"
           transform="translate(69.796,41.9063)">
          <path
             d="m 0,0 c 0.205,-0.133 0.567,-0.302 0.942,-0.302 0.531,0 0.857,0.326 0.857,0.846 0,0.447 -0.157,0.748 -0.748,1.146 -0.762,0.497 -1.172,0.991 -1.172,1.668 0,0.942 0.7,1.618 1.607,1.618 0.459,0 0.808,-0.157 1.05,-0.302 L 2.282,3.974 C 2.065,4.119 1.811,4.227 1.51,4.227 1.002,4.227 0.748,3.865 0.748,3.49 0.748,3.092 0.893,2.875 1.473,2.477 2.15,2.042 2.681,1.51 2.681,0.7 c 0,-1.171 -0.797,-1.739 -1.752,-1.739 -0.435,0 -0.906,0.133 -1.158,0.338 z"
             style="fill:#000000;fill-opacity:1;fill-rule:nonzero;stroke:none"
             id="path486" />
        </g>
        <g
           id="g488"
           transform="translate(74.7613,48.1507)">
          <path
             d="M 0,0 V -1.364 H 1.123 V -2.077 H 0 v -3.467 c 0,-0.76 0.277,-0.967 0.616,-0.967 0.144,0 0.266,0.012 0.374,0.037 L 1.026,-7.187 C 0.857,-7.246 0.64,-7.283 0.338,-7.283 c -0.362,0 -0.689,0.096 -0.919,0.35 -0.229,0.266 -0.349,0.664 -0.349,1.474 v 3.382 h -0.714 v 0.713 h 0.714 v 0.989 z"
             style="fill:#000000;fill-opacity:1;fill-rule:nonzero;stroke:none"
             id="path490" />
        </g>
        <g
           id="g492"
           transform="translate(77.4795,46.7861)">
          <path
             d="M 0,0 0.736,-3.286 C 0.821,-3.684 0.918,-4.204 0.99,-4.711 h 0.036 c 0.061,0.484 0.157,0.978 0.242,1.425 L 1.993,0 H 2.91 L 1.388,-5.847 H 0.555 L -0.967,0 Z"
             style="fill:#000000;fill-opacity:1;fill-rule:nonzero;stroke:none"
             id="path494" />
        </g>
        <g
           id="g496"
           transform="translate(81.9003,43.8631)">
          <path
             d="m 0,0 c 0,-0.966 0.168,-2.283 1.016,-2.283 0.796,0 0.953,1.377 0.953,2.283 0,0.894 -0.157,2.27 -0.978,2.27 C 0.158,2.27 0,0.894 0,0 m 2.911,0 c 0,-2.258 -1.05,-3.02 -1.944,-3.02 -1.05,0 -1.897,0.954 -1.897,3.008 0,2.138 0.954,3.032 1.958,3.032 1.038,0 1.883,-0.978 1.883,-3.02"
             style="fill:#000000;fill-opacity:1;fill-rule:nonzero;stroke:none"
             id="path498" />
        </g>
        <g
           id="g500"
           transform="translate(89.1364,47.5472)">
          <path
             d="m 0,0 -0.955,1.631 h 0.701 L 0.302,0.579 H 0.327 L 0.894,1.631 H 1.595 L 0.64,0 Z m -1.485,-6.04 1.848,3.612 c 0.157,0.301 0.338,0.604 0.47,0.869 v 0.025 h -2.089 v 0.773 H 1.861 V -1.377 L 0.036,-4.941 C -0.12,-5.242 -0.301,-5.544 -0.435,-5.81 v -0.024 h 2.296 v -0.774 h -3.346 z"
             style="fill:#000000;fill-opacity:1;fill-rule:nonzero;stroke:none"
             id="path502" />
        </g>
        <path
           d="m 92.073,46.786 h 0.931 v -5.847 h -0.931 z m 1.002,1.511 c 0.012,-0.364 -0.217,-0.605 -0.567,-0.605 -0.302,0 -0.532,0.241 -0.532,0.605 0,0.361 0.242,0.603 0.544,0.603 0.338,0 0.555,-0.242 0.555,-0.603"
           style="fill:#000000;fill-opacity:1;fill-rule:nonzero;stroke:none"
           id="path504" />
        <g
           id="g506"
           transform="translate(94.9482,46.7861)">
          <path
             d="M 0,0 0.736,-3.286 C 0.821,-3.684 0.918,-4.204 0.99,-4.711 h 0.036 c 0.061,0.484 0.157,0.978 0.242,1.425 L 1.993,0 H 2.91 L 1.388,-5.847 H 0.555 L -0.967,0 Z"
             style="fill:#000000;fill-opacity:1;fill-rule:nonzero;stroke:none"
             id="path508" />
        </g>
        <g
           id="g510"
           transform="translate(99.3692,43.8631)">
          <path
             d="m 0,0 c 0,-0.966 0.169,-2.283 1.015,-2.283 0.797,0 0.953,1.377 0.953,2.283 0,0.894 -0.156,2.27 -0.977,2.27 C 0.158,2.27 0,0.894 0,0 m 2.91,0 c 0,-2.258 -1.049,-3.02 -1.943,-3.02 -1.051,0 -1.898,0.954 -1.898,3.008 0,2.138 0.955,3.032 1.959,3.032 C 2.066,3.02 2.91,2.042 2.91,0"
             style="fill:#000000;fill-opacity:1;fill-rule:nonzero;stroke:none"
             id="path512" />
        </g>
        <g
           id="g514"
           transform="translate(104.6359,48.1507)">
          <path
             d="M 0,0 V -1.364 H 1.124 V -2.077 H 0 v -3.467 c 0,-0.76 0.278,-0.967 0.616,-0.967 0.146,0 0.266,0.012 0.375,0.037 L 1.028,-7.187 C 0.858,-7.246 0.64,-7.283 0.34,-7.283 c -0.364,0 -0.689,0.096 -0.918,0.35 -0.23,0.266 -0.352,0.664 -0.352,1.474 v 3.382 h -0.712 v 0.713 h 0.712 v 0.989 z"
             style="fill:#000000;fill-opacity:1;fill-rule:nonzero;stroke:none"
             id="path516" />
        </g>
        <g
           id="g518"
           transform="translate(106.7629,45.2758)">
          <path
             d="M 0,0 C 0,0.688 -0.036,1.04 -0.049,1.51 H 0.76 l 0.049,-0.7 h 0.024 c 0.254,0.47 0.725,0.797 1.341,0.797 0.809,0 1.414,-0.604 1.414,-2.018 v -3.926 h -0.93 v 3.77 C 2.658,0.12 2.524,0.822 1.847,0.822 1.462,0.822 1.087,0.496 0.966,-0.133 0.943,-0.277 0.931,-0.459 0.931,-0.652 V -4.337 H 0 Z"
             style="fill:#000000;fill-opacity:1;fill-rule:nonzero;stroke:none"
             id="path520" />
        </g>
        <path
           d="m 111.837,46.786 h 0.931 v -5.847 h -0.931 z m 1.885,2.392 -1.269,-1.631 h -0.616 l 0.931,1.631 z"
           style="fill:#000000;fill-opacity:1;fill-rule:nonzero;stroke:none"
           id="path522" />
        <g
           id="g524"
           transform="translate(114.2405,49.2985)">
          <path
             d="m 0,0 h 0.931 v -3.141 h 0.023 c 0.121,0.206 0.303,0.387 0.483,0.507 0.218,0.134 0.447,0.218 0.786,0.218 0.736,0 1.366,-0.592 1.366,-2.065 V -8.359 H 2.658 v 3.769 c 0,0.712 -0.158,1.389 -0.786,1.389 -0.435,0 -0.76,-0.314 -0.906,-0.93 C 0.943,-4.264 0.931,-4.433 0.931,-4.578 V -8.359 H 0 Z"
             style="fill:#000000;fill-opacity:1;fill-rule:nonzero;stroke:none"
             id="path526" />
        </g>
        <g
           id="g528"
           transform="translate(119.9901,43.8631)">
          <path
             d="m 0,0 c 0,-0.966 0.169,-2.283 1.016,-2.283 0.797,0 0.953,1.377 0.953,2.283 0,0.894 -0.156,2.27 -0.978,2.27 C 0.158,2.27 0,0.894 0,0 m 2.911,0 c 0,-2.258 -1.05,-3.02 -1.944,-3.02 -1.05,0 -1.897,0.954 -1.897,3.008 0,2.138 0.954,3.032 1.959,3.032 1.038,0 1.882,-0.978 1.882,-3.02"
             style="fill:#000000;fill-opacity:1;fill-rule:nonzero;stroke:none"
             id="path530" />
        </g>
        <g
           id="g532"
           transform="translate(127.1184,43.0903)">
          <path
             d="m 0,0 c 0,-0.182 0,-0.351 0.035,-0.484 0.183,-0.833 0.605,-0.99 0.86,-0.99 0.771,0 1.013,1.063 1.013,2.247 0,1.208 -0.29,2.222 -1.026,2.222 C 0.46,2.995 0.084,2.464 0.024,1.932 0,1.787 0,1.642 0,1.485 Z m -0.93,1.872 c 0,0.893 -0.037,1.413 -0.049,1.824 h 0.834 l 0.049,-0.749 h 0.024 c 0.314,0.627 0.771,0.846 1.231,0.846 1.016,0 1.692,-1.088 1.692,-3.009 0,-2.161 -0.894,-3.031 -1.812,-3.031 -0.544,0 -0.858,0.35 -1.015,0.676 H 0 v -2.898 h -0.93 z"
             style="fill:#000000;fill-opacity:1;fill-rule:nonzero;stroke:none"
             id="path534" />
        </g>
        <g
           id="g536"
           transform="translate(131.1899,45.2758)">
          <path
             d="M 0,0 C 0,0.496 -0.037,1.075 -0.049,1.51 H 0.784 L 0.833,0.592 h 0.025 c 0.193,0.556 0.689,1.015 1.231,1.015 0.073,0 0.133,-0.012 0.194,-0.012 V 0.641 C 2.222,0.653 2.162,0.653 2.089,0.653 1.498,0.653 1.063,0.109 0.966,-0.567 0.943,-0.724 0.93,-0.906 0.93,-1.099 V -4.337 H 0 Z"
             style="fill:#000000;fill-opacity:1;fill-rule:nonzero;stroke:none"
             id="path538" />
        </g>
        <g
           id="g540"
           transform="translate(134.8857,43.8631)">
          <path
             d="m 0,0 c 0,-0.966 0.169,-2.283 1.014,-2.283 0.798,0 0.955,1.377 0.955,2.283 0,0.894 -0.157,2.27 -0.98,2.27 C 0.157,2.27 0,0.894 0,0 m 2.911,0 c 0,-2.258 -1.051,-3.02 -1.946,-3.02 -1.05,0 -1.896,0.954 -1.896,3.008 0,2.138 0.955,3.032 1.958,3.032 1.038,0 1.884,-0.978 1.884,-3.02"
             style="fill:#000000;fill-opacity:1;fill-rule:nonzero;stroke:none"
             id="path542" />
        </g>
        <g
           id="g544"
           transform="translate(138.8597,41.9063)">
          <path
             d="m 0,0 c 0.205,-0.133 0.567,-0.302 0.943,-0.302 0.53,0 0.857,0.326 0.857,0.846 0,0.447 -0.157,0.748 -0.75,1.146 -0.76,0.497 -1.17,0.991 -1.17,1.668 0,0.942 0.698,1.618 1.605,1.618 0.46,0 0.81,-0.157 1.052,-0.302 L 2.283,3.974 C 2.066,4.119 1.812,4.227 1.509,4.227 1.002,4.227 0.749,3.865 0.749,3.49 0.749,3.092 0.894,2.875 1.473,2.477 2.15,2.042 2.681,1.51 2.681,0.7 c 0,-1.171 -0.797,-1.739 -1.75,-1.739 -0.435,0 -0.907,0.133 -1.16,0.338 z"
             style="fill:#000000;fill-opacity:1;fill-rule:nonzero;stroke:none"
             id="path546" />
        </g>
        <g
           id="g548"
           transform="translate(143.8249,48.1507)">
          <path
             d="M 0,0 V -1.364 H 1.123 V -2.077 H 0 v -3.467 c 0,-0.76 0.278,-0.967 0.615,-0.967 0.146,0 0.266,0.012 0.376,0.037 L 1.028,-7.187 C 0.857,-7.246 0.64,-7.283 0.339,-7.283 c -0.363,0 -0.689,0.096 -0.918,0.35 -0.23,0.266 -0.352,0.664 -0.352,1.474 v 3.382 h -0.711 v 0.713 h 0.711 v 0.989 z"
             style="fill:#000000;fill-opacity:1;fill-rule:nonzero;stroke:none"
             id="path550" />
        </g>
        <g
           id="g552"
           transform="translate(145.9392,45.2758)">
          <path
             d="M 0,0 C 0,0.496 -0.037,1.075 -0.049,1.51 H 0.784 L 0.833,0.592 h 0.025 c 0.193,0.556 0.689,1.015 1.231,1.015 0.073,0 0.133,-0.012 0.194,-0.012 V 0.641 C 2.222,0.653 2.162,0.653 2.089,0.653 1.498,0.653 1.063,0.109 0.966,-0.567 0.943,-0.724 0.93,-0.906 0.93,-1.099 V -4.337 H 0 Z M 0.676,2.271 -0.278,3.902 H 0.423 L 0.978,2.851 h 0.024 l 0.569,1.051 h 0.7 L 1.316,2.271 Z"
             style="fill:#000000;fill-opacity:1;fill-rule:nonzero;stroke:none"
             id="path554" />
        </g>
        <g
           id="g556"
           transform="translate(151.4478,44.467)">
          <path
             d="M 0,0 C 0.023,1.172 -0.424,1.691 -0.87,1.691 -1.474,1.691 -1.787,0.797 -1.823,0 Z m -1.836,-0.688 c 0.013,-1.788 0.713,-2.174 1.389,-2.174 0.399,0 0.737,0.096 0.966,0.229 l 0.145,-0.688 c -0.325,-0.182 -0.821,-0.278 -1.28,-0.278 -1.401,0 -2.126,1.148 -2.126,2.935 0,1.896 0.796,3.08 1.968,3.08 1.198,0 1.667,-1.256 1.667,-2.586 0,-0.216 0,-0.374 -0.011,-0.518 z"
             style="fill:#000000;fill-opacity:1;fill-rule:nonzero;stroke:none"
             id="path558" />
        </g>
        <g
           id="g560"
           transform="translate(156.1233,44.5631)">
          <path
             d="m 0,0 c 0,0.121 0,0.254 -0.012,0.387 -0.061,0.604 -0.423,1.136 -0.87,1.136 -0.774,0 -1.04,-1.075 -1.04,-2.247 0,-1.232 0.315,-2.222 0.991,-2.222 0.289,0 0.689,0.156 0.894,1.002 C -0.012,-1.836 0,-1.702 0,-1.558 Z m 0.916,4.735 v -6.956 c 0,-0.4 0.037,-1.064 0.049,-1.403 H 0.169 L 0.108,-2.886 H 0.071 c -0.193,-0.423 -0.603,-0.834 -1.219,-0.834 -0.992,0 -1.704,1.075 -1.704,2.996 0,2.078 0.859,3.044 1.763,3.044 0.425,0 0.835,-0.206 1.065,-0.701 H 0 v 3.116 z"
             style="fill:#000000;fill-opacity:1;fill-rule:nonzero;stroke:none"
             id="path562" />
        </g>
        <path
           d="m 158.526,46.786 h 0.931 v -5.847 h -0.931 z m 1.885,2.392 -1.269,-1.631 h -0.616 l 0.931,1.631 z"
           style="fill:#000000;fill-opacity:1;fill-rule:nonzero;stroke:none"
           id="path564" />
      </g>
    </g>
  </g>
</svg>
