<?xml version="1.0" encoding="UTF-8" standalone="no"?>
<!-- Created with Inkscape (http://www.inkscape.org/) -->

<svg
   width="55.331604mm"
   height="15.164152mm"
   viewBox="0 0 55.331604 15.164152"
   version="1.1"
   id="svg1358"
   inkscape:version="1.2 (dc2aeda, 2022-05-15)"
   sodipodi:docname="logo-sfzp.svg"
   xmlns:inkscape="http://www.inkscape.org/namespaces/inkscape"
   xmlns:sodipodi="http://sodipodi.sourceforge.net/DTD/sodipodi-0.dtd"
   xmlns="http://www.w3.org/2000/svg"
   xmlns:svg="http://www.w3.org/2000/svg">
  <sodipodi:namedview
     id="namedview1360"
     pagecolor="#505050"
     bordercolor="#eeeeee"
     borderopacity="1"
     inkscape:showpageshadow="0"
     inkscape:pageopacity="0"
     inkscape:pagecheckerboard="0"
     inkscape:deskcolor="#505050"
     inkscape:document-units="mm"
     showgrid="false"
     inkscape:zoom="2.2299847"
     inkscape:cx="140.35971"
     inkscape:cy="110.98731"
     inkscape:window-width="2560"
     inkscape:window-height="1387"
     inkscape:window-x="0"
     inkscape:window-y="25"
     inkscape:window-maximized="1"
     inkscape:current-layer="layer1" />
  <defs
     id="defs1355">
    <clipPath
       clipPathUnits="userSpaceOnUse"
       id="clipPath260">
      <path
         d="M 197.091,27.881 H 355.009 V 70.866 H 197.091 Z"
         id="path258" />
    </clipPath>
  </defs>
  <g
     inkscape:label="Layer 1"
     inkscape:groupmode="layer"
     id="layer1"
     transform="translate(-136.59515,-116.48121)">
    <g
       id="g254"
       transform="matrix(0.35277777,0,0,-0.35277777,66.68825,141.48116)">
      <g
         id="g256"
         clip-path="url(#clipPath260)">
        <g
           id="g262"
           transform="translate(198.1613,49.64)">
          <path
             d="m 0,0 v -0.014 c 0,-0.005 0.011,-0.352 0.023,-0.677 0.5,8.781 7.616,15.774 16.315,15.774 9.022,0 16.363,-7.516 16.365,-16.755 0,-2.156 -0.41,-4.26 -1.205,-6.259 3.846,3.006 6.144,7.732 6.144,12.686 0,10.31 -8.499,16.471 -16.715,16.471 -5.645,0 -10.941,-2.242 -14.913,-6.312 C 2.139,10.942 0.003,5.646 0,0"
             style="fill:#8bd2f5;fill-opacity:1;fill-rule:nonzero;stroke:none"
             id="path264" />
        </g>
        <g
           id="g266"
           transform="translate(207.3973,44.0947)">
          <path
             d="m 0,0 v 0 c 0.612,-4.926 3.45,-9.334 7.628,-11.812 3.684,-2.186 7.761,-2.757 11.788,-1.651 4.298,1.18 8.208,4.276 10.458,8.279 1.83,3.257 2.811,6.958 2.838,10.705 0,0.055 10e-4,0.109 10e-4,0.163 0,7.686 -3.839,14.545 -10.292,18.373 0,0 -0.362,0.198 -0.725,0.396 C 26.489,21.28 29.18,15.906 29.18,10.362 29.18,7.508 28.474,4.616 26.987,1.97 24.807,-1.909 21.27,-4.688 17.028,-5.853 12.81,-7.012 8.423,-6.425 4.677,-4.203 2.858,-3.124 1.289,-1.707 0,0"
             style="fill:#006bb6;fill-opacity:1;fill-rule:nonzero;stroke:none"
             id="path268" />
        </g>
        <g
           id="g270"
           transform="translate(201.198,38.711)">
          <path
             d="m 0,0 c -4.107,7.306 -3.16,17.945 5.537,23.102 4.178,2.478 9.314,2.799 13.772,0.881 C 17.224,23.69 15.245,23.002 13.426,21.924 8.202,18.825 5.281,13.181 5.281,7.38 c 0,-2.853 0.706,-5.743 2.193,-8.388 2.179,-3.878 5.716,-6.655 9.959,-7.821 3.949,-1.084 8.035,-0.607 11.617,1.278 C 28.711,-7.769 28.373,-7.986 28.373,-7.986 25.191,-9.873 21.662,-10.83 17.884,-10.83 10.608,-10.83 3.755,-6.68 0,0"
             style="fill:#2ba343;fill-opacity:1;fill-rule:nonzero;stroke:none"
             id="path272" />
        </g>
        <g
           id="g274"
           transform="translate(255.8993,58.1635)">
          <path
             d="M 0,0 C 0.279,0 0.496,0.067 0.654,0.199 0.812,0.331 0.89,0.501 0.89,0.711 0.89,0.841 0.867,0.95 0.82,1.038 0.772,1.126 0.704,1.203 0.614,1.268 0.524,1.333 0.414,1.394 0.283,1.45 0.152,1.507 0.004,1.571 -0.159,1.643 c -0.148,0.058 -0.287,0.124 -0.418,0.198 -0.131,0.073 -0.247,0.16 -0.35,0.26 -0.102,0.101 -0.183,0.218 -0.242,0.353 -0.06,0.134 -0.09,0.292 -0.09,0.472 0,0.159 0.031,0.314 0.092,0.465 0.062,0.151 0.154,0.285 0.277,0.403 0.123,0.117 0.275,0.211 0.454,0.283 0.18,0.071 0.387,0.107 0.62,0.107 0.422,0 0.783,-0.103 1.081,-0.308 C 1.294,3.855 1.311,3.832 1.317,3.809 1.323,3.787 1.326,3.756 1.326,3.718 V 3.29 C 1.326,3.231 1.302,3.202 1.253,3.202 1.224,3.202 1.197,3.215 1.173,3.24 0.886,3.53 0.543,3.674 0.141,3.674 -0.112,3.674 -0.305,3.606 -0.439,3.47 -0.572,3.334 -0.638,3.171 -0.638,2.982 c 0,-0.121 0.026,-0.225 0.077,-0.311 0.051,-0.086 0.118,-0.16 0.202,-0.224 0.084,-0.063 0.182,-0.119 0.295,-0.17 0.112,-0.05 0.23,-0.1 0.353,-0.15 C 0.493,2.047 0.673,1.964 0.826,1.878 0.98,1.792 1.106,1.696 1.207,1.589 1.307,1.482 1.383,1.363 1.434,1.23 1.485,1.098 1.51,0.948 1.51,0.78 1.51,0.579 1.473,0.4 1.397,0.243 1.321,0.085 1.217,-0.048 1.083,-0.157 0.951,-0.266 0.794,-0.349 0.614,-0.406 0.434,-0.462 0.238,-0.49 0.025,-0.49 c -0.147,0 -0.279,0.007 -0.396,0.022 -0.117,0.014 -0.224,0.038 -0.322,0.072 -0.099,0.034 -0.192,0.074 -0.283,0.123 -0.09,0.048 -0.182,0.108 -0.276,0.179 -0.021,0.021 -0.036,0.042 -0.046,0.063 -0.011,0.02 -0.016,0.048 -0.016,0.082 v 0.346 c 0,0.067 0.021,0.1 0.062,0.1 0.024,0 0.051,-0.014 0.08,-0.043 0.18,-0.148 0.366,-0.259 0.558,-0.337 C -0.422,0.039 -0.217,0 0,0"
             style="fill:#68737a;fill-opacity:1;fill-rule:nonzero;stroke:none"
             id="path276" />
        </g>
        <g
           id="g278"
           transform="translate(263.0839,62.2027)">
          <path
             d="m 0,0 c 0.029,0 0.043,-0.017 0.043,-0.051 v -0.427 c 0,-0.03 -0.014,-0.044 -0.043,-0.044 -0.115,0 -0.236,0.001 -0.362,0.006 -0.127,0.004 -0.248,0.007 -0.363,0.007 -0.278,0 -0.552,0.005 -0.823,0.018 0.013,-0.235 0.019,-0.467 0.019,-0.698 v -3.196 c 0,-0.012 -0.006,-0.025 -0.019,-0.038 -0.011,-0.012 -0.024,-0.018 -0.036,-0.018 h -0.51 c -0.016,0 -0.029,0.006 -0.039,0.018 -0.01,0.013 -0.016,0.026 -0.016,0.038 v 3.209 c 0,0.235 0.006,0.463 0.019,0.685 -0.246,-0.013 -0.494,-0.018 -0.744,-0.018 -0.143,0 -0.278,-0.003 -0.408,-0.007 -0.128,-0.005 -0.264,-0.006 -0.408,-0.006 -0.037,0 -0.051,0.017 -0.043,0.05 l 0.056,0.416 C -3.674,-0.019 -3.659,0 -3.634,0 Z"
             style="fill:#68737a;fill-opacity:1;fill-rule:nonzero;stroke:none"
             id="path280" />
        </g>
        <g
           id="g282"
           transform="translate(267.0876,60.4539)">
          <path
             d="M 0,0 C -0.172,0.495 -0.293,0.908 -0.362,1.24 -0.399,1.076 -0.448,0.891 -0.509,0.685 -0.571,0.48 -0.642,0.26 -0.724,0.025 c -0.029,-0.08 -0.059,-0.161 -0.089,-0.245 -0.031,-0.084 -0.061,-0.166 -0.089,-0.246 -0.029,-0.08 -0.056,-0.152 -0.08,-0.217 -0.024,-0.064 -0.045,-0.118 -0.061,-0.16 0.114,0.009 0.23,0.014 0.35,0.016 0.118,0.002 0.233,0.003 0.343,0.003 h 0.338 c 0.115,0 0.223,-0.005 0.325,-0.013 -0.016,0.042 -0.037,0.096 -0.064,0.16 C 0.222,-0.611 0.195,-0.54 0.166,-0.463 0.137,-0.384 0.108,-0.306 0.08,-0.227 0.051,-0.147 0.025,-0.072 0,0 M 0.455,-1.245 C 0.323,-1.254 0.188,-1.259 0.046,-1.262 c -0.141,-0.002 -0.277,-0.003 -0.408,-0.003 -0.135,0 -0.272,10e-4 -0.411,0.003 -0.139,0.003 -0.274,0.008 -0.405,0.017 C -1.203,-1.33 -1.234,-1.428 -1.271,-1.541 -1.307,-1.655 -1.347,-1.773 -1.39,-1.897 -1.434,-2.021 -1.478,-2.146 -1.525,-2.271 -1.573,-2.397 -1.616,-2.516 -1.657,-2.63 -1.674,-2.672 -1.696,-2.693 -1.725,-2.693 H -2.21 c -0.061,0 -0.08,0.034 -0.055,0.101 l 1.577,4.284 c 0.005,0.013 0.013,0.025 0.025,0.038 0.012,0.012 0.025,0.019 0.037,0.019 h 0.559 c 0.033,0 0.057,-0.019 0.073,-0.057 L 1.584,-2.592 C 1.609,-2.659 1.591,-2.693 1.529,-2.693 H 1.001 c -0.033,0 -0.057,0.021 -0.074,0.063 -0.094,0.252 -0.183,0.498 -0.267,0.74 -0.084,0.241 -0.152,0.456 -0.205,0.645 m -0.884,3.34 C -0.442,2.082 -0.457,2.071 -0.476,2.06 -0.494,2.05 -0.509,2.044 -0.521,2.044 h -0.246 c -0.016,0 -0.027,0.007 -0.034,0.019 -0.006,0.013 -0.005,0.025 0.003,0.038 l 0.774,0.881 c 0.008,0.012 0.021,0.026 0.04,0.04 0.018,0.016 0.035,0.023 0.052,0.023 h 0.467 c 0.015,0 0.026,-0.009 0.03,-0.025 0.004,-0.017 0,-0.032 -0.012,-0.044 z"
             style="fill:#68737a;fill-opacity:1;fill-rule:nonzero;stroke:none"
             id="path284" />
        </g>
        <g
           id="g286"
           transform="translate(274.1003,62.2027)">
          <path
             d="m 0,0 c 0.029,0 0.043,-0.017 0.043,-0.051 v -0.427 c 0,-0.03 -0.014,-0.044 -0.043,-0.044 -0.115,0 -0.236,0.001 -0.362,0.006 -0.127,0.004 -0.248,0.007 -0.363,0.007 -0.278,0 -0.552,0.005 -0.823,0.018 0.013,-0.235 0.019,-0.467 0.019,-0.698 v -3.196 c 0,-0.012 -0.006,-0.025 -0.019,-0.038 -0.011,-0.012 -0.024,-0.018 -0.036,-0.018 h -0.51 c -0.016,0 -0.029,0.006 -0.039,0.018 -0.01,0.013 -0.016,0.026 -0.016,0.038 v 3.209 c 0,0.235 0.006,0.463 0.019,0.685 -0.246,-0.013 -0.494,-0.018 -0.744,-0.018 -0.143,0 -0.278,-0.003 -0.408,-0.007 -0.128,-0.005 -0.264,-0.006 -0.408,-0.006 -0.037,0 -0.051,0.017 -0.042,0.05 l 0.055,0.416 C -3.674,-0.019 -3.659,0 -3.634,0 Z"
             style="fill:#68737a;fill-opacity:1;fill-rule:nonzero;stroke:none"
             id="path288" />
        </g>
        <g
           id="g290"
           transform="translate(277.3435,60.8753)">
          <path
             d="M 0,0 C -0.172,0.269 -0.313,0.55 -0.424,0.843 -0.411,0.684 -0.403,0.526 -0.396,0.371 -0.39,0.216 -0.387,0.05 -0.387,-0.125 v -2.933 c 0,-0.012 -0.005,-0.025 -0.016,-0.038 -0.01,-0.012 -0.021,-0.018 -0.034,-0.018 h -0.459 c -0.017,0 -0.03,0.006 -0.04,0.018 -0.011,0.013 -0.016,0.026 -0.016,0.038 v 4.323 c 0,0.042 0.019,0.062 0.056,0.062 h 0.693 c 0.021,0 0.039,-0.006 0.055,-0.019 0.017,-0.012 0.029,-0.026 0.037,-0.043 l 1.768,-2.806 c 0.115,-0.18 0.21,-0.35 0.286,-0.51 0.076,-0.16 0.142,-0.319 0.2,-0.478 -0.021,0.218 -0.034,0.413 -0.04,0.585 -0.007,0.172 -0.01,0.361 -0.01,0.566 v 2.643 c 0,0.042 0.019,0.062 0.056,0.062 H 2.603 C 2.615,1.327 2.628,1.321 2.64,1.308 2.652,1.296 2.658,1.282 2.658,1.265 V -3.058 C 2.658,-3.07 2.652,-3.083 2.64,-3.096 2.628,-3.108 2.615,-3.114 2.603,-3.114 H 2.001 c -0.033,0 -0.057,0.017 -0.074,0.051 z"
             style="fill:#68737a;fill-opacity:1;fill-rule:nonzero;stroke:none"
             id="path292" />
        </g>
        <g
           id="g294"
           transform="translate(283.4533,57.8174)">
          <path
             d="M 0,0 C 0,-0.012 -0.006,-0.025 -0.018,-0.038 -0.031,-0.05 -0.043,-0.056 -0.055,-0.056 h -0.51 c -0.016,0 -0.029,0.006 -0.04,0.018 C -0.615,-0.025 -0.62,-0.012 -0.62,0 v 4.323 c 0,0.041 0.019,0.062 0.055,0.062 h 0.51 c 0.012,0 0.024,-0.006 0.037,-0.019 C -0.006,4.354 0,4.339 0,4.323 Z M -0.386,4.731 C -0.399,4.718 -0.415,4.707 -0.433,4.697 -0.451,4.686 -0.466,4.681 -0.479,4.681 h -0.245 c -0.016,0 -0.028,0.006 -0.035,0.019 -0.005,0.013 -0.004,0.025 0.004,0.038 l 0.774,0.881 c 0.008,0.012 0.021,0.025 0.04,0.04 0.018,0.015 0.035,0.022 0.052,0.022 h 0.466 c 0.017,0 0.027,-0.009 0.031,-0.025 0.004,-0.017 0,-0.032 -0.012,-0.044 z"
             style="fill:#68737a;fill-opacity:1;fill-rule:nonzero;stroke:none"
             id="path296" />
        </g>
        <g
           id="g298"
           transform="translate(290.155,57.8174)">
          <path
             d="M 0,0 C 0,-0.012 -0.006,-0.025 -0.018,-0.038 -0.031,-0.05 -0.043,-0.056 -0.055,-0.056 h -0.51 c -0.016,0 -0.029,0.006 -0.04,0.018 C -0.615,-0.025 -0.62,-0.012 -0.62,0 v 4.323 c 0,0.041 0.019,0.062 0.055,0.062 H 2.02 c 0.02,0 0.035,-0.019 0.043,-0.056 L 2.106,3.939 C 2.106,3.905 2.091,3.888 2.063,3.888 1.969,3.888 1.864,3.889 1.747,3.891 1.63,3.894 1.511,3.895 1.39,3.895 c -0.12,0 -0.238,0 -0.355,0.003 C 0.918,3.899 0.815,3.901 0.724,3.901 0.597,3.901 0.469,3.902 0.341,3.904 0.212,3.906 0.092,3.912 -0.018,3.92 -0.01,3.798 -0.005,3.67 -0.003,3.536 -0.001,3.401 0,3.278 0,3.165 0,2.909 -0.006,2.665 -0.018,2.435 0.076,2.443 0.184,2.45 0.307,2.454 0.43,2.458 0.56,2.46 0.7,2.46 c 0.184,0 0.338,10e-4 0.46,0.003 0.124,0.003 0.208,0.004 0.252,0.004 0.029,0 0.043,-0.02 0.043,-0.057 V 2.026 C 1.455,1.993 1.441,1.976 1.412,1.976 1.359,1.976 1.274,1.977 1.157,1.982 1.041,1.986 0.89,1.989 0.707,1.989 0.567,1.989 0.441,1.99 0.329,1.991 0.216,1.994 0.1,1.999 -0.018,2.007 -0.006,1.735 0,1.437 0,1.114 Z"
             style="fill:#68737a;fill-opacity:1;fill-rule:nonzero;stroke:none"
             id="path300" />
        </g>
        <g
           id="g302"
           transform="translate(296.3878,58.1893)">
          <path
             d="M 0,0 C 0.246,0 0.462,0.045 0.648,0.135 0.835,0.225 0.991,0.352 1.118,0.516 1.244,0.679 1.34,0.875 1.403,1.104 1.467,1.332 1.499,1.585 1.499,1.862 1.499,2.164 1.46,2.426 1.385,2.648 1.309,2.87 1.205,3.055 1.072,3.202 0.939,3.349 0.781,3.458 0.599,3.532 0.417,3.606 0.219,3.643 0.006,3.643 -0.203,3.643 -0.398,3.606 -0.58,3.536 -0.762,3.464 -0.921,3.355 -1.056,3.208 -1.191,3.061 -1.297,2.876 -1.375,2.652 -1.452,2.427 -1.492,2.164 -1.492,1.862 -1.492,1.59 -1.459,1.339 -1.393,1.113 -1.328,0.887 -1.232,0.691 -1.105,0.525 -0.978,0.36 -0.822,0.23 -0.638,0.138 -0.454,0.046 -0.241,0 0,0 M 0,4.158 C 0.287,4.158 0.562,4.107 0.826,4.004 1.091,3.901 1.324,3.751 1.526,3.554 1.729,3.357 1.891,3.117 2.011,2.834 2.132,2.551 2.192,2.227 2.192,1.862 2.192,1.505 2.138,1.182 2.03,0.89 1.921,0.599 1.77,0.349 1.575,0.141 1.381,-0.066 1.149,-0.227 0.882,-0.34 0.613,-0.453 0.32,-0.51 0,-0.51 c -0.298,0 -0.58,0.055 -0.844,0.167 -0.264,0.111 -0.495,0.27 -0.693,0.475 -0.199,0.205 -0.356,0.454 -0.47,0.746 -0.115,0.291 -0.172,0.619 -0.172,0.984 0,0.357 0.059,0.676 0.178,0.959 0.118,0.283 0.278,0.523 0.479,0.72 0.201,0.197 0.431,0.349 0.694,0.456 C -0.567,4.104 -0.29,4.158 0,4.158"
             style="fill:#68737a;fill-opacity:1;fill-rule:nonzero;stroke:none"
             id="path304" />
        </g>
        <g
           id="g306"
           transform="translate(302.1549,60.8753)">
          <path
             d="M 0,0 C -0.172,0.269 -0.313,0.55 -0.424,0.843 -0.411,0.684 -0.403,0.526 -0.396,0.371 -0.39,0.216 -0.387,0.05 -0.387,-0.125 v -2.933 c 0,-0.012 -0.005,-0.025 -0.016,-0.038 -0.01,-0.012 -0.021,-0.018 -0.034,-0.018 h -0.459 c -0.017,0 -0.03,0.006 -0.041,0.018 -0.01,0.013 -0.015,0.026 -0.015,0.038 v 4.323 c 0,0.042 0.019,0.062 0.056,0.062 h 0.693 c 0.021,0 0.039,-0.006 0.055,-0.019 0.017,-0.012 0.029,-0.026 0.037,-0.043 l 1.768,-2.806 c 0.115,-0.18 0.21,-0.35 0.286,-0.51 0.076,-0.16 0.142,-0.319 0.2,-0.478 -0.021,0.218 -0.034,0.413 -0.04,0.585 -0.007,0.172 -0.01,0.361 -0.01,0.566 v 2.643 c 0,0.042 0.019,0.062 0.056,0.062 H 2.603 C 2.615,1.327 2.628,1.321 2.64,1.308 2.652,1.296 2.658,1.282 2.658,1.265 V -3.058 C 2.658,-3.07 2.652,-3.083 2.64,-3.096 2.628,-3.108 2.615,-3.114 2.603,-3.114 H 2.001 c -0.033,0 -0.057,0.017 -0.074,0.051 z"
             style="fill:#68737a;fill-opacity:1;fill-rule:nonzero;stroke:none"
             id="path308" />
        </g>
        <g
           id="g310"
           transform="translate(307.7004,57.7613)">
          <path
             d="m 0,0 c -0.017,0 -0.03,0.006 -0.04,0.018 -0.01,0.013 -0.016,0.026 -0.016,0.038 v 4.323 c 0,0.042 0.019,0.062 0.056,0.062 H 1.357 C 1.7,4.441 2.012,4.391 2.293,4.29 2.574,4.19 2.813,4.043 3.012,3.85 3.209,3.657 3.363,3.421 3.469,3.142 3.575,2.863 3.628,2.545 3.628,2.189 3.628,1.828 3.574,1.512 3.465,1.24 3.357,0.967 3.205,0.739 3.008,0.553 2.811,0.369 2.577,0.231 2.305,0.138 2.033,0.046 1.733,0 1.406,0 Z m 1.393,0.497 c 0.213,0 0.415,0.031 0.605,0.091 C 2.189,0.649 2.354,0.747 2.496,0.884 2.637,1.02 2.749,1.197 2.833,1.416 2.917,1.634 2.959,1.9 2.959,2.215 2.959,2.458 2.928,2.685 2.867,2.897 2.806,3.108 2.709,3.292 2.575,3.447 2.442,3.602 2.271,3.724 2.062,3.812 1.853,3.9 1.602,3.944 1.307,3.944 1.193,3.944 1.065,3.945 0.924,3.948 0.783,3.95 0.657,3.955 0.546,3.964 0.558,3.712 0.565,3.454 0.565,3.19 V 1.459 C 0.565,1.266 0.564,1.092 0.561,0.934 0.56,0.777 0.554,0.625 0.546,0.478 c 0.16,0.009 0.303,0.013 0.43,0.016 0.127,0.002 0.266,0.003 0.417,0.003"
             style="fill:#68737a;fill-opacity:1;fill-rule:nonzero;stroke:none"
             id="path312" />
        </g>
        <g
           id="g314"
           transform="translate(256.0533,47.9322)">
          <path
             d="m 0,0 c -0.09,-0.13 -0.169,-0.242 -0.236,-0.336 -0.068,-0.094 -0.128,-0.176 -0.179,-0.246 -0.051,-0.069 -0.099,-0.131 -0.144,-0.185 -0.045,-0.054 -0.088,-0.107 -0.129,-0.157 0.209,0.008 0.426,0.014 0.651,0.018 0.225,0.005 0.448,0.007 0.669,0.007 0.196,0 0.408,0.002 0.636,0.006 0.227,0.004 0.439,0.007 0.635,0.007 0.037,0 0.053,-0.021 0.049,-0.063 L 1.903,-1.333 C 1.894,-1.367 1.876,-1.384 1.848,-1.384 h -3.322 c -0.016,0 -0.033,0.013 -0.049,0.038 -0.016,0.025 -0.025,0.052 -0.025,0.082 0,0.025 0.009,0.048 0.025,0.069 L 0.509,1.73 C 0.595,1.852 0.669,1.956 0.73,2.042 0.792,2.128 0.847,2.204 0.896,2.269 0.945,2.333 0.99,2.389 1.031,2.435 1.072,2.481 1.113,2.527 1.154,2.574 0.945,2.565 0.736,2.56 0.524,2.557 0.314,2.556 0.11,2.554 -0.086,2.554 c -0.197,0 -0.4,-10e-4 -0.611,-0.005 -0.211,-0.005 -0.415,-0.007 -0.611,-0.007 -0.041,0 -0.057,0.017 -0.049,0.05 l 0.049,0.409 c 0.004,0.037 0.02,0.057 0.049,0.057 h 3.18 C 1.946,3.058 1.965,3.048 1.98,3.03 1.994,3.01 2.001,2.989 2.001,2.964 2.001,2.938 1.995,2.913 1.983,2.888 Z M 0.908,4.297 C 0.945,4.335 0.976,4.354 1,4.354 H 1.24 C 1.256,4.354 1.266,4.347 1.27,4.335 1.275,4.322 1.27,4.31 1.258,4.297 L 0.516,3.41 C 0.479,3.372 0.446,3.353 0.417,3.353 H 0.159 c -0.037,0 -0.07,0.019 -0.098,0.057 L -0.67,4.297 c -0.008,0.013 -0.008,0.025 -0.003,0.038 0.006,0.012 0.018,0.019 0.034,0.019 h 0.258 c 0.024,0 0.055,-0.019 0.092,-0.057 L 0.313,3.718 Z"
             style="fill:#68737a;fill-opacity:1;fill-rule:nonzero;stroke:none"
             id="path316" />
        </g>
        <g
           id="g318"
           transform="translate(261.2302,46.6047)">
          <path
             d="M 0,0 C 0,-0.012 -0.006,-0.025 -0.018,-0.038 -0.031,-0.05 -0.043,-0.056 -0.055,-0.056 h -0.509 c -0.017,0 -0.03,0.006 -0.041,0.018 C -0.615,-0.025 -0.62,-0.012 -0.62,0 v 4.323 c 0,0.041 0.019,0.062 0.056,0.062 h 0.509 c 0.012,0 0.024,-0.006 0.037,-0.019 C -0.006,4.354 0,4.339 0,4.323 Z"
             style="fill:#68737a;fill-opacity:1;fill-rule:nonzero;stroke:none"
             id="path320" />
        </g>
        <g
           id="g322"
           transform="translate(265.1613,46.5485)">
          <path
             d="m 0,0 c -0.041,0 -0.065,0.018 -0.074,0.056 l -1.577,4.285 c -0.025,0.067 -0.006,0.1 0.055,0.1 h 0.528 c 0.012,0 0.026,-0.006 0.043,-0.019 0.016,-0.012 0.026,-0.026 0.03,-0.043 L -0.018,1.611 C 0.047,1.422 0.108,1.235 0.162,1.051 0.218,0.866 0.264,0.684 0.301,0.504 0.378,0.864 0.483,1.233 0.614,1.611 l 0.97,2.768 c 0.017,0.042 0.041,0.062 0.074,0.062 h 0.484 c 0.063,0 0.081,-0.033 0.056,-0.1 L 0.62,0.056 C 0.616,0.044 0.608,0.031 0.596,0.018 0.583,0.006 0.571,0 0.559,0 Z"
             style="fill:#68737a;fill-opacity:1;fill-rule:nonzero;stroke:none"
             id="path324" />
        </g>
        <g
           id="g326"
           transform="translate(271.6146,46.9765)">
          <path
             d="M 0,0 C 0.246,0 0.462,0.045 0.648,0.135 0.835,0.225 0.991,0.352 1.118,0.516 1.244,0.679 1.34,0.875 1.403,1.104 1.467,1.332 1.499,1.585 1.499,1.862 1.499,2.164 1.46,2.426 1.385,2.648 1.309,2.87 1.205,3.055 1.072,3.202 0.939,3.349 0.781,3.459 0.599,3.532 0.417,3.606 0.219,3.643 0.006,3.643 -0.203,3.643 -0.398,3.606 -0.58,3.536 -0.762,3.464 -0.921,3.355 -1.056,3.208 -1.191,3.061 -1.297,2.876 -1.375,2.652 -1.452,2.427 -1.492,2.164 -1.492,1.862 -1.492,1.59 -1.459,1.339 -1.393,1.113 -1.327,0.887 -1.232,0.691 -1.105,0.525 -0.978,0.36 -0.822,0.23 -0.638,0.138 -0.454,0.046 -0.241,0 0,0 M 0,4.158 C 0.287,4.158 0.562,4.107 0.826,4.004 1.091,3.901 1.324,3.751 1.526,3.554 1.729,3.357 1.891,3.117 2.011,2.834 2.132,2.551 2.192,2.227 2.192,1.862 2.192,1.505 2.138,1.182 2.03,0.89 1.921,0.599 1.77,0.349 1.575,0.141 1.381,-0.066 1.15,-0.227 0.882,-0.34 0.613,-0.453 0.32,-0.51 0,-0.51 c -0.298,0 -0.58,0.055 -0.844,0.167 -0.264,0.111 -0.495,0.27 -0.693,0.475 -0.199,0.205 -0.356,0.454 -0.47,0.746 -0.115,0.291 -0.172,0.619 -0.172,0.984 0,0.357 0.059,0.676 0.178,0.959 0.118,0.283 0.279,0.523 0.479,0.72 0.201,0.197 0.432,0.349 0.694,0.456 C -0.567,4.104 -0.29,4.158 0,4.158"
             style="fill:#68737a;fill-opacity:1;fill-rule:nonzero;stroke:none"
             id="path328" />
        </g>
        <g
           id="g330"
           transform="translate(279.5797,50.99)">
          <path
             d="m 0,0 c 0.029,0 0.043,-0.017 0.043,-0.051 v -0.427 c 0,-0.03 -0.014,-0.044 -0.043,-0.044 -0.115,0 -0.236,0.001 -0.362,0.006 -0.127,0.004 -0.248,0.007 -0.363,0.007 -0.278,0 -0.552,0.005 -0.823,0.018 0.013,-0.235 0.019,-0.467 0.019,-0.698 v -3.196 c 0,-0.012 -0.006,-0.025 -0.019,-0.038 -0.011,-0.012 -0.024,-0.018 -0.036,-0.018 h -0.51 c -0.016,0 -0.029,0.006 -0.039,0.018 -0.01,0.013 -0.016,0.026 -0.016,0.038 v 3.209 c 0,0.235 0.006,0.463 0.019,0.685 -0.246,-0.013 -0.494,-0.018 -0.744,-0.018 -0.142,0 -0.278,-0.003 -0.408,-0.007 -0.128,-0.005 -0.264,-0.006 -0.408,-0.006 -0.037,0 -0.051,0.017 -0.043,0.05 l 0.055,0.416 C -3.673,-0.019 -3.659,0 -3.634,0 Z"
             style="fill:#68737a;fill-opacity:1;fill-rule:nonzero;stroke:none"
             id="path332" />
        </g>
        <g
           id="g334"
           transform="translate(282.8228,49.6626)">
          <path
             d="M 0,0 C -0.172,0.269 -0.313,0.55 -0.424,0.843 -0.411,0.684 -0.403,0.526 -0.396,0.371 -0.39,0.216 -0.387,0.05 -0.387,-0.125 v -2.933 c 0,-0.012 -0.005,-0.025 -0.016,-0.038 -0.01,-0.012 -0.021,-0.018 -0.034,-0.018 h -0.459 c -0.017,0 -0.03,0.006 -0.041,0.018 -0.01,0.013 -0.015,0.026 -0.015,0.038 v 4.323 c 0,0.042 0.019,0.062 0.056,0.062 h 0.693 c 0.021,0 0.039,-0.006 0.055,-0.019 0.017,-0.012 0.029,-0.027 0.037,-0.043 l 1.768,-2.806 c 0.115,-0.18 0.21,-0.35 0.286,-0.51 0.075,-0.16 0.142,-0.319 0.2,-0.478 -0.021,0.218 -0.034,0.413 -0.04,0.585 -0.007,0.172 -0.01,0.361 -0.01,0.566 v 2.643 c 0,0.042 0.019,0.062 0.056,0.062 H 2.603 C 2.615,1.327 2.628,1.321 2.64,1.308 2.652,1.296 2.658,1.281 2.658,1.265 V -3.058 C 2.658,-3.07 2.652,-3.083 2.64,-3.096 2.628,-3.108 2.615,-3.114 2.603,-3.114 H 2.001 c -0.033,0 -0.057,0.017 -0.074,0.051 z"
             style="fill:#68737a;fill-opacity:1;fill-rule:nonzero;stroke:none"
             id="path336" />
        </g>
        <g
           id="g338"
           transform="translate(288.9326,46.6047)">
          <path
             d="M 0,0 C 0,-0.012 -0.006,-0.025 -0.018,-0.038 -0.031,-0.05 -0.043,-0.056 -0.055,-0.056 h -0.51 c -0.016,0 -0.029,0.006 -0.04,0.018 C -0.615,-0.025 -0.62,-0.012 -0.62,0 v 4.323 c 0,0.041 0.019,0.062 0.055,0.062 h 0.51 c 0.012,0 0.024,-0.006 0.037,-0.019 C -0.006,4.354 0,4.339 0,4.323 Z M -0.386,4.731 C -0.399,4.718 -0.415,4.707 -0.433,4.697 -0.451,4.686 -0.466,4.681 -0.479,4.681 h -0.245 c -0.016,0 -0.028,0.006 -0.035,0.019 -0.005,0.013 -0.004,0.025 0.004,0.038 l 0.774,0.881 c 0.008,0.012 0.021,0.025 0.04,0.04 0.018,0.015 0.035,0.022 0.052,0.022 h 0.466 c 0.017,0 0.027,-0.009 0.031,-0.025 0.004,-0.017 0,-0.032 -0.012,-0.044 z"
             style="fill:#68737a;fill-opacity:1;fill-rule:nonzero;stroke:none"
             id="path340" />
        </g>
        <g
           id="g342"
           transform="translate(294.1038,49.1783)">
          <path
             d="M 0,0 C 0.221,0 0.428,-0.006 0.62,-0.019 0.608,0.237 0.601,0.501 0.601,0.774 v 0.975 c 0,0.042 0.019,0.063 0.056,0.063 h 0.515 c 0.013,0 0.025,-0.007 0.037,-0.02 C 1.222,1.78 1.228,1.766 1.228,1.749 V -2.574 C 1.228,-2.585 1.222,-2.598 1.209,-2.611 1.197,-2.623 1.185,-2.63 1.172,-2.63 H 0.657 c -0.016,0 -0.03,0.007 -0.04,0.019 -0.01,0.013 -0.016,0.026 -0.016,0.037 v 1.177 c 0,0.302 0.007,0.598 0.019,0.887 C 0.497,-0.518 0.392,-0.522 0.304,-0.522 H 0.013 -1.13 -1.421 c -0.089,0 -0.194,0.004 -0.316,0.012 0.011,-0.289 0.018,-0.585 0.018,-0.887 v -1.177 c 0,-0.011 -0.007,-0.024 -0.018,-0.037 C -1.75,-2.623 -1.762,-2.63 -1.774,-2.63 h -0.51 c -0.016,0 -0.03,0.007 -0.04,0.019 -0.01,0.013 -0.016,0.026 -0.016,0.037 v 4.323 c 0,0.042 0.019,0.063 0.056,0.063 h 0.51 c 0.012,0 0.024,-0.007 0.037,-0.02 0.011,-0.012 0.018,-0.026 0.018,-0.043 V 0.774 c 0,-0.273 -0.007,-0.537 -0.018,-0.793 C -1.549,-0.006 -1.342,0 -1.117,0 Z"
             style="fill:#68737a;fill-opacity:1;fill-rule:nonzero;stroke:none"
             id="path344" />
        </g>
        <g
           id="g346"
           transform="translate(300.1523,46.9765)">
          <path
             d="M 0,0 C 0.246,0 0.462,0.045 0.648,0.135 0.835,0.225 0.991,0.352 1.118,0.516 1.244,0.679 1.34,0.875 1.403,1.104 1.467,1.332 1.499,1.585 1.499,1.862 1.499,2.164 1.46,2.426 1.385,2.648 1.309,2.87 1.205,3.055 1.072,3.202 0.939,3.349 0.781,3.459 0.599,3.532 0.417,3.606 0.219,3.643 0.006,3.643 -0.203,3.643 -0.398,3.606 -0.58,3.536 -0.762,3.464 -0.921,3.355 -1.056,3.208 -1.191,3.061 -1.297,2.876 -1.375,2.652 -1.452,2.427 -1.492,2.164 -1.492,1.862 -1.492,1.59 -1.459,1.339 -1.393,1.113 -1.328,0.887 -1.232,0.691 -1.105,0.525 -0.978,0.36 -0.822,0.23 -0.638,0.138 -0.454,0.046 -0.241,0 0,0 M 0,4.158 C 0.287,4.158 0.562,4.107 0.826,4.004 1.091,3.901 1.324,3.751 1.526,3.554 1.729,3.357 1.891,3.117 2.011,2.834 2.132,2.551 2.192,2.227 2.192,1.862 2.192,1.505 2.138,1.182 2.03,0.89 1.921,0.599 1.77,0.349 1.575,0.141 1.381,-0.066 1.15,-0.227 0.882,-0.34 0.613,-0.453 0.32,-0.51 0,-0.51 c -0.298,0 -0.58,0.055 -0.844,0.167 -0.264,0.111 -0.495,0.27 -0.693,0.475 -0.199,0.205 -0.356,0.454 -0.47,0.746 -0.115,0.291 -0.172,0.619 -0.172,0.984 0,0.357 0.059,0.676 0.178,0.959 0.118,0.283 0.278,0.523 0.479,0.72 0.201,0.197 0.432,0.349 0.694,0.456 C -0.567,4.104 -0.29,4.158 0,4.158"
             style="fill:#68737a;fill-opacity:1;fill-rule:nonzero;stroke:none"
             id="path348" />
        </g>
        <g
           id="g350"
           transform="translate(309.4142,48.2468)">
          <path
             d="m 0,0 c -0.245,0 -0.444,0.006 -0.595,0.019 0.008,-0.126 0.013,-0.262 0.015,-0.408 0.002,-0.148 0.003,-0.294 0.003,-0.441 v -0.812 c 0,-0.012 -0.006,-0.025 -0.018,-0.038 -0.013,-0.012 -0.024,-0.018 -0.037,-0.018 h -0.509 c -0.017,0 -0.03,0.006 -0.041,0.018 -0.01,0.013 -0.015,0.026 -0.015,0.038 v 4.303 c 0,0.021 0.006,0.04 0.019,0.057 0.012,0.016 0.024,0.025 0.037,0.025 H 0.068 C 0.334,2.743 0.564,2.705 0.758,2.63 0.953,2.554 1.113,2.454 1.237,2.328 1.362,2.202 1.456,2.055 1.517,1.887 1.578,1.72 1.609,1.544 1.609,1.36 1.609,1.154 1.575,0.968 1.508,0.802 1.44,0.637 1.339,0.494 1.204,0.375 1.069,0.255 0.901,0.162 0.7,0.098 0.499,0.033 0.266,0 0,0 m -0.042,0.472 c 0.331,0 0.58,0.073 0.745,0.217 0.166,0.145 0.249,0.37 0.249,0.676 0,0.127 -0.016,0.245 -0.049,0.356 C 0.87,1.832 0.818,1.927 0.746,2.007 0.674,2.087 0.582,2.149 0.467,2.196 0.353,2.242 0.213,2.265 0.049,2.265 -0.057,2.265 -0.164,2.266 -0.273,2.269 -0.381,2.27 -0.489,2.276 -0.595,2.284 -0.591,2.225 -0.588,2.158 -0.586,2.083 -0.584,2.007 -0.582,1.928 -0.58,1.847 -0.578,1.765 -0.577,1.685 -0.577,1.605 V 1.391 1.161 C -0.577,1.08 -0.578,0.995 -0.58,0.909 -0.582,0.824 -0.584,0.742 -0.586,0.664 -0.588,0.586 -0.591,0.518 -0.595,0.459 c 0.089,0.009 0.184,0.013 0.283,0.013 h 0.27"
             style="fill:#68737a;fill-opacity:1;fill-rule:nonzero;stroke:none"
             id="path352" />
        </g>
        <g
           id="g354"
           transform="translate(314.4686,48.373)">
          <path
             d="m 0,0 c -0.033,0 -0.085,0.001 -0.157,0.003 -0.071,0.002 -0.136,0.005 -0.193,0.009 0.008,-0.133 0.014,-0.272 0.018,-0.415 0.005,-0.142 0.006,-0.287 0.006,-0.434 v -0.931 c 0,-0.012 -0.006,-0.025 -0.018,-0.038 -0.012,-0.012 -0.024,-0.018 -0.037,-0.018 H -0.89 c -0.017,0 -0.03,0.006 -0.04,0.018 -0.011,0.013 -0.016,0.026 -0.016,0.038 v 4.303 c 0,0.021 0.006,0.04 0.019,0.057 0.013,0.016 0.024,0.025 0.037,0.025 H 0.362 C 0.612,2.617 0.828,2.585 1.013,2.52 1.197,2.455 1.349,2.366 1.467,2.255 1.586,2.144 1.674,2.013 1.731,1.862 1.789,1.711 1.817,1.55 1.817,1.377 1.817,1.206 1.782,1.048 1.713,0.903 1.643,0.758 1.551,0.632 1.437,0.525 1.322,0.418 1.191,0.332 1.044,0.267 0.896,0.202 0.743,0.163 0.583,0.151 0.661,0.134 0.747,0.094 0.841,0.031 0.935,-0.031 1.034,-0.109 1.138,-0.201 1.243,-0.294 1.35,-0.398 1.461,-0.516 1.572,-0.633 1.682,-0.757 1.792,-0.887 1.964,-1.084 2.11,-1.25 2.231,-1.384 c 0.121,-0.134 0.215,-0.218 0.28,-0.251 0.024,-0.009 0.037,-0.038 0.037,-0.089 0,-0.067 -0.027,-0.1 -0.08,-0.1 H 1.903 c -0.041,0 -0.08,0.013 -0.117,0.041 C 1.749,-1.756 1.697,-1.694 1.627,-1.598 1.492,-1.434 1.35,-1.26 1.203,-1.073 1.056,-0.887 0.912,-0.713 0.77,-0.553 0.629,-0.394 0.493,-0.262 0.362,-0.158 0.231,-0.052 0.11,0 0,0 m 0.288,2.139 c -0.213,0 -0.423,0.006 -0.632,0.019 0.004,-0.059 0.007,-0.131 0.01,-0.214 0.001,-0.084 0.004,-0.17 0.005,-0.258 0.003,-0.088 0.003,-0.175 0.003,-0.261 V 1.201 c 0,-0.26 -0.006,-0.515 -0.018,-0.767 0.058,0.005 0.126,0.009 0.206,0.013 0.079,0.004 0.162,0.006 0.248,0.006 0.369,0 0.637,0.08 0.805,0.242 0.168,0.162 0.252,0.383 0.252,0.664 0,0.239 -0.072,0.429 -0.215,0.569 -0.144,0.14 -0.365,0.211 -0.664,0.211"
             style="fill:#68737a;fill-opacity:1;fill-rule:nonzero;stroke:none"
             id="path356" />
        </g>
        <g
           id="g358"
           transform="translate(321.1921,46.9765)">
          <path
             d="M 0,0 C 0.246,0 0.462,0.045 0.648,0.135 0.835,0.225 0.991,0.352 1.118,0.516 1.244,0.679 1.34,0.875 1.403,1.104 1.467,1.332 1.499,1.585 1.499,1.862 1.499,2.164 1.46,2.426 1.385,2.648 1.309,2.87 1.205,3.055 1.072,3.202 0.939,3.349 0.781,3.459 0.599,3.532 0.417,3.606 0.219,3.643 0.006,3.643 -0.203,3.643 -0.398,3.606 -0.58,3.536 -0.762,3.464 -0.921,3.355 -1.056,3.208 -1.191,3.061 -1.297,2.876 -1.375,2.652 -1.452,2.427 -1.492,2.164 -1.492,1.862 -1.492,1.59 -1.459,1.339 -1.393,1.113 -1.328,0.887 -1.232,0.691 -1.105,0.525 -0.978,0.36 -0.822,0.23 -0.638,0.138 -0.454,0.046 -0.241,0 0,0 M 0,4.158 C 0.287,4.158 0.562,4.107 0.826,4.004 1.091,3.901 1.324,3.751 1.526,3.554 1.729,3.357 1.891,3.117 2.011,2.834 2.132,2.551 2.192,2.227 2.192,1.862 2.192,1.505 2.138,1.182 2.03,0.89 1.921,0.599 1.77,0.349 1.575,0.141 1.381,-0.066 1.15,-0.227 0.882,-0.34 0.613,-0.453 0.32,-0.51 0,-0.51 c -0.298,0 -0.58,0.055 -0.844,0.167 -0.264,0.111 -0.495,0.27 -0.693,0.475 -0.199,0.205 -0.356,0.454 -0.47,0.746 -0.115,0.291 -0.172,0.619 -0.172,0.984 0,0.357 0.059,0.676 0.178,0.959 0.118,0.283 0.278,0.523 0.479,0.72 0.201,0.197 0.432,0.349 0.694,0.456 C -0.567,4.104 -0.29,4.158 0,4.158"
             style="fill:#68737a;fill-opacity:1;fill-rule:nonzero;stroke:none"
             id="path360" />
        </g>
        <g
           id="g362"
           transform="translate(327.1063,46.9508)">
          <path
             d="M 0,0 C 0.279,0 0.496,0.067 0.654,0.199 0.812,0.331 0.89,0.501 0.89,0.711 0.89,0.841 0.867,0.95 0.82,1.038 0.772,1.126 0.704,1.203 0.614,1.268 0.524,1.333 0.414,1.394 0.283,1.45 0.152,1.507 0.004,1.571 -0.159,1.643 c -0.148,0.058 -0.287,0.124 -0.418,0.198 -0.131,0.073 -0.247,0.16 -0.35,0.26 -0.102,0.101 -0.183,0.218 -0.242,0.353 -0.06,0.134 -0.089,0.292 -0.089,0.472 0,0.159 0.03,0.314 0.091,0.465 0.062,0.151 0.154,0.285 0.277,0.403 0.123,0.117 0.275,0.211 0.454,0.283 0.18,0.071 0.387,0.107 0.62,0.107 0.422,0 0.783,-0.103 1.081,-0.308 C 1.294,3.855 1.311,3.832 1.317,3.809 1.323,3.787 1.326,3.756 1.326,3.718 V 3.29 C 1.326,3.232 1.302,3.202 1.253,3.202 1.224,3.202 1.197,3.215 1.173,3.24 0.886,3.53 0.543,3.674 0.141,3.674 -0.112,3.674 -0.305,3.606 -0.439,3.47 -0.572,3.334 -0.638,3.171 -0.638,2.982 c 0,-0.121 0.026,-0.225 0.077,-0.311 0.051,-0.086 0.118,-0.16 0.202,-0.224 0.084,-0.063 0.182,-0.119 0.295,-0.17 0.112,-0.05 0.23,-0.1 0.353,-0.15 C 0.493,2.047 0.673,1.965 0.826,1.878 0.98,1.792 1.106,1.696 1.207,1.589 1.307,1.482 1.383,1.363 1.434,1.23 1.485,1.098 1.51,0.948 1.51,0.78 1.51,0.579 1.473,0.4 1.397,0.243 1.321,0.085 1.217,-0.048 1.083,-0.157 0.951,-0.266 0.794,-0.349 0.614,-0.406 0.434,-0.462 0.238,-0.49 0.025,-0.49 c -0.147,0 -0.279,0.007 -0.396,0.022 -0.116,0.014 -0.224,0.038 -0.322,0.072 -0.099,0.034 -0.192,0.074 -0.283,0.123 -0.09,0.048 -0.182,0.108 -0.276,0.179 -0.021,0.021 -0.036,0.042 -0.046,0.063 -0.011,0.02 -0.016,0.048 -0.016,0.082 v 0.346 c 0,0.067 0.021,0.1 0.062,0.1 0.024,0 0.051,-0.014 0.08,-0.043 0.18,-0.148 0.366,-0.259 0.558,-0.337 C -0.422,0.039 -0.217,0 0,0"
             style="fill:#68737a;fill-opacity:1;fill-rule:nonzero;stroke:none"
             id="path364" />
        </g>
        <g
           id="g366"
           transform="translate(334.2909,50.99)">
          <path
             d="m 0,0 c 0.029,0 0.043,-0.017 0.043,-0.051 v -0.427 c 0,-0.03 -0.014,-0.044 -0.043,-0.044 -0.115,0 -0.236,0.001 -0.362,0.006 -0.127,0.004 -0.248,0.007 -0.363,0.007 -0.278,0 -0.552,0.005 -0.823,0.018 0.013,-0.235 0.019,-0.467 0.019,-0.698 v -3.196 c 0,-0.012 -0.006,-0.025 -0.019,-0.038 -0.011,-0.012 -0.024,-0.018 -0.036,-0.018 h -0.51 c -0.016,0 -0.029,0.006 -0.039,0.018 -0.01,0.013 -0.016,0.026 -0.016,0.038 v 3.209 c 0,0.235 0.006,0.463 0.019,0.685 -0.246,-0.013 -0.494,-0.018 -0.744,-0.018 -0.143,0 -0.278,-0.003 -0.408,-0.007 -0.128,-0.005 -0.264,-0.006 -0.408,-0.006 -0.037,0 -0.051,0.017 -0.042,0.05 l 0.055,0.416 C -3.674,-0.019 -3.659,0 -3.634,0 Z"
             style="fill:#68737a;fill-opacity:1;fill-rule:nonzero;stroke:none"
             id="path368" />
        </g>
        <g
           id="g370"
           transform="translate(337.5277,48.373)">
          <path
             d="m 0,0 c -0.033,0 -0.085,0.001 -0.157,0.003 -0.071,0.002 -0.136,0.005 -0.193,0.009 0.008,-0.133 0.014,-0.272 0.018,-0.415 0.005,-0.142 0.006,-0.287 0.006,-0.434 v -0.931 c 0,-0.012 -0.006,-0.025 -0.018,-0.038 -0.012,-0.012 -0.024,-0.018 -0.037,-0.018 H -0.89 c -0.017,0 -0.03,0.006 -0.04,0.018 -0.011,0.013 -0.016,0.026 -0.016,0.038 v 4.303 c 0,0.021 0.006,0.04 0.019,0.057 0.012,0.016 0.024,0.025 0.037,0.025 H 0.362 C 0.612,2.617 0.828,2.585 1.013,2.52 1.197,2.455 1.349,2.366 1.467,2.255 1.586,2.144 1.674,2.013 1.731,1.862 1.789,1.711 1.817,1.55 1.817,1.377 1.817,1.206 1.782,1.048 1.713,0.903 1.643,0.758 1.551,0.632 1.437,0.525 1.322,0.418 1.191,0.332 1.043,0.267 0.896,0.202 0.743,0.163 0.583,0.151 0.661,0.134 0.747,0.094 0.841,0.031 0.935,-0.031 1.034,-0.109 1.138,-0.201 1.243,-0.294 1.35,-0.398 1.461,-0.516 1.572,-0.633 1.682,-0.757 1.792,-0.887 1.964,-1.084 2.11,-1.25 2.231,-1.384 c 0.121,-0.134 0.215,-0.218 0.28,-0.251 0.024,-0.009 0.037,-0.038 0.037,-0.089 0,-0.067 -0.027,-0.1 -0.08,-0.1 H 1.903 c -0.041,0 -0.08,0.013 -0.117,0.041 C 1.749,-1.756 1.697,-1.694 1.627,-1.598 1.492,-1.434 1.35,-1.26 1.203,-1.073 1.056,-0.887 0.912,-0.713 0.77,-0.553 0.629,-0.394 0.493,-0.262 0.362,-0.158 0.231,-0.052 0.11,0 0,0 m 0.288,2.139 c -0.213,0 -0.423,0.006 -0.632,0.019 0.004,-0.059 0.007,-0.131 0.01,-0.214 0.001,-0.084 0.003,-0.17 0.005,-0.258 0.002,-0.088 0.003,-0.175 0.003,-0.261 V 1.201 c 0,-0.26 -0.006,-0.515 -0.018,-0.767 0.057,0.005 0.126,0.009 0.206,0.013 0.079,0.004 0.162,0.006 0.248,0.006 0.369,0 0.637,0.08 0.805,0.242 0.168,0.162 0.252,0.383 0.252,0.664 0,0.239 -0.072,0.429 -0.215,0.569 -0.144,0.14 -0.365,0.211 -0.664,0.211 m 0.596,1.717 c 0.037,0.038 0.068,0.057 0.092,0.057 h 0.239 c 0.017,0 0.027,-0.006 0.031,-0.019 0.004,-0.012 0,-0.025 -0.012,-0.038 L 0.491,2.969 C 0.454,2.932 0.422,2.912 0.393,2.912 H 0.135 c -0.037,0 -0.07,0.02 -0.098,0.057 l -0.731,0.887 c -0.008,0.013 -0.009,0.026 -0.003,0.038 0.006,0.013 0.017,0.019 0.034,0.019 h 0.258 c 0.024,0 0.055,-0.019 0.092,-0.057 L 0.288,3.277 Z"
             style="fill:#68737a;fill-opacity:1;fill-rule:nonzero;stroke:none"
             id="path372" />
        </g>
        <g
           id="g374"
           transform="translate(343.859,47.0328)">
          <path
             d="m 0,0 c 0.196,0 0.398,0.002 0.604,0.006 0.208,0.005 0.402,0.007 0.587,0.007 0.029,0 0.043,-0.019 0.043,-0.057 L 1.185,-0.434 C 1.177,-0.467 1.163,-0.484 1.142,-0.484 h -2.671 c -0.016,0 -0.03,0.006 -0.04,0.018 -0.01,0.013 -0.015,0.026 -0.015,0.038 v 4.323 c 0,0.041 0.018,0.062 0.055,0.062 H 1.05 c 0.025,0 0.04,-0.019 0.049,-0.056 L 1.142,3.511 C 1.142,3.477 1.127,3.46 1.099,3.46 1.005,3.46 0.9,3.461 0.783,3.463 0.666,3.466 0.546,3.467 0.424,3.467 c -0.123,0 -0.242,0 -0.357,0.003 -0.114,10e-4 -0.216,0.003 -0.307,0.003 -0.159,0 -0.296,0.001 -0.411,0.003 -0.115,0.002 -0.225,0.007 -0.331,0.015 0.008,-0.121 0.013,-0.243 0.015,-0.364 0.002,-0.122 0.003,-0.237 0.003,-0.346 0,-0.24 -0.007,-0.48 -0.018,-0.724 0.094,0.009 0.197,0.015 0.31,0.019 0.112,0.004 0.246,0.007 0.402,0.007 0.155,0 0.29,10e-4 0.405,0.002 0.114,0.003 0.209,0.004 0.282,0.004 0.029,0 0.044,-0.019 0.044,-0.057 V 1.655 C 0.461,1.621 0.446,1.604 0.417,1.604 0.34,1.604 0.242,1.606 0.125,1.607 0.009,1.61 -0.127,1.611 -0.283,1.611 c -0.131,0 -0.254,0.003 -0.371,0.009 -0.116,0.007 -0.226,0.014 -0.328,0.022 0.011,-0.277 0.018,-0.543 0.018,-0.799 0,-0.293 -0.007,-0.581 -0.018,-0.862 0.073,0.005 0.144,0.008 0.212,0.009 0.067,0.003 0.139,0.005 0.217,0.007 C -0.475,-0.001 -0.392,0 -0.304,0 H 0"
             style="fill:#68737a;fill-opacity:1;fill-rule:nonzero;stroke:none"
             id="path376" />
        </g>
        <g
           id="g378"
           transform="translate(347.52,46.5485)">
          <path
             d="m 0,0 c -0.016,0 -0.03,0.006 -0.04,0.018 -0.01,0.013 -0.016,0.026 -0.016,0.038 v 4.323 c 0,0.042 0.019,0.062 0.056,0.062 H 1.357 C 1.701,4.441 2.012,4.391 2.293,4.29 2.573,4.19 2.813,4.043 3.012,3.85 3.209,3.657 3.363,3.421 3.469,3.142 3.575,2.863 3.628,2.545 3.628,2.189 3.628,1.828 3.574,1.512 3.465,1.24 3.357,0.967 3.205,0.739 3.008,0.553 2.811,0.369 2.577,0.231 2.305,0.138 2.033,0.046 1.733,0 1.406,0 Z m 1.393,0.497 c 0.213,0 0.415,0.031 0.605,0.091 C 2.189,0.649 2.354,0.747 2.496,0.884 2.637,1.02 2.749,1.197 2.833,1.416 2.917,1.634 2.959,1.9 2.959,2.215 2.959,2.458 2.928,2.685 2.867,2.897 2.806,3.108 2.709,3.292 2.575,3.447 2.442,3.602 2.271,3.724 2.063,3.812 1.853,3.9 1.602,3.944 1.307,3.944 1.193,3.944 1.065,3.945 0.924,3.948 0.783,3.95 0.657,3.955 0.546,3.964 0.558,3.712 0.565,3.454 0.565,3.19 V 1.459 C 0.565,1.266 0.564,1.092 0.561,0.934 0.56,0.777 0.554,0.625 0.546,0.478 c 0.16,0.009 0.303,0.013 0.43,0.016 0.127,0.002 0.266,0.003 0.417,0.003"
             style="fill:#68737a;fill-opacity:1;fill-rule:nonzero;stroke:none"
             id="path380" />
        </g>
        <g
           id="g382"
           transform="translate(354.3973,46.6047)">
          <path
             d="M 0,0 C 0,-0.012 -0.006,-0.025 -0.018,-0.038 -0.031,-0.05 -0.042,-0.056 -0.055,-0.056 h -0.509 c -0.017,0 -0.03,0.006 -0.041,0.018 C -0.615,-0.025 -0.62,-0.012 -0.62,0 v 4.323 c 0,0.041 0.019,0.062 0.056,0.062 h 0.509 c 0.013,0 0.024,-0.006 0.037,-0.019 C -0.006,4.354 0,4.339 0,4.323 Z M -0.386,4.731 C -0.399,4.718 -0.415,4.707 -0.433,4.697 -0.451,4.686 -0.466,4.681 -0.479,4.681 h -0.245 c -0.016,0 -0.028,0.006 -0.035,0.019 -0.005,0.013 -0.004,0.025 0.004,0.038 l 0.774,0.881 c 0.008,0.012 0.021,0.025 0.04,0.04 0.018,0.015 0.035,0.022 0.052,0.022 h 0.466 c 0.017,0 0.027,-0.009 0.031,-0.025 0.004,-0.017 0,-0.032 -0.012,-0.044 z"
             style="fill:#68737a;fill-opacity:1;fill-rule:nonzero;stroke:none"
             id="path384" />
        </g>
        <g
           id="g386"
           transform="translate(256.7159,35.2538)">
          <path
             d="m 0,0 c -0.311,0 -0.597,0.055 -0.857,0.167 -0.259,0.111 -0.483,0.267 -0.669,0.468 -0.186,0.202 -0.331,0.443 -0.435,0.724 -0.105,0.281 -0.157,0.589 -0.157,0.925 0,0.327 0.052,0.635 0.157,0.925 0.104,0.289 0.254,0.542 0.451,0.758 0.196,0.215 0.436,0.387 0.719,0.512 0.281,0.127 0.599,0.189 0.951,0.189 0.25,0 0.479,-0.03 0.687,-0.091 C 1.056,4.516 1.232,4.433 1.375,4.329 1.404,4.307 1.423,4.285 1.43,4.259 1.439,4.234 1.443,4.203 1.443,4.165 V 3.743 c 0,-0.067 -0.027,-0.1 -0.08,-0.1 C 1.342,3.643 1.316,3.656 1.284,3.68 1.14,3.819 0.971,3.927 0.777,4.005 0.582,4.082 0.377,4.12 0.16,4.12 -0.102,4.12 -0.334,4.077 -0.534,3.988 -0.735,3.901 -0.904,3.777 -1.04,3.618 -1.178,3.458 -1.28,3.268 -1.35,3.045 -1.42,2.823 -1.455,2.578 -1.455,2.309 c 0,-0.277 0.039,-0.526 0.117,-0.748 0.078,-0.223 0.186,-0.411 0.325,-0.563 0.139,-0.153 0.305,-0.272 0.497,-0.356 0.192,-0.084 0.404,-0.125 0.633,-0.125 0.233,0 0.445,0.031 0.635,0.094 0.191,0.062 0.371,0.167 0.543,0.314 0.033,0.021 0.058,0.031 0.074,0.031 0.05,0 0.074,-0.029 0.074,-0.087 V 0.535 C 1.443,0.497 1.438,0.47 1.427,0.453 1.417,0.437 1.4,0.418 1.375,0.397 1.196,0.262 0.999,0.162 0.786,0.098 0.573,0.033 0.311,0 0,0 M 0.725,5.762 C 0.761,5.8 0.792,5.82 0.816,5.82 h 0.24 c 0.016,0 0.027,-0.007 0.03,-0.02 0.005,-0.012 0,-0.025 -0.011,-0.038 L 0.332,4.876 C 0.295,4.838 0.262,4.819 0.233,4.819 h -0.257 c -0.037,0 -0.07,0.019 -0.098,0.057 l -0.731,0.886 c -0.008,0.013 -0.009,0.026 -0.004,0.038 0.007,0.013 0.018,0.02 0.034,0.02 h 0.259 c 0.024,0 0.054,-0.02 0.091,-0.058 L 0.129,5.184 Z"
             style="fill:#68737a;fill-opacity:1;fill-rule:nonzero;stroke:none"
             id="path388" />
        </g>
        <g
           id="g390"
           transform="translate(262.1818,35.82)">
          <path
             d="m 0,0 c 0.196,0 0.398,0.002 0.604,0.006 0.208,0.005 0.402,0.007 0.587,0.007 0.029,0 0.043,-0.019 0.043,-0.057 L 1.185,-0.434 C 1.177,-0.467 1.163,-0.484 1.142,-0.484 h -2.671 c -0.016,0 -0.029,0.006 -0.04,0.018 -0.01,0.013 -0.015,0.026 -0.015,0.038 v 4.323 c 0,0.041 0.019,0.062 0.055,0.062 H 1.05 c 0.025,0 0.04,-0.019 0.049,-0.056 L 1.142,3.511 C 1.142,3.477 1.127,3.46 1.099,3.46 1.005,3.46 0.9,3.461 0.783,3.463 0.666,3.466 0.546,3.467 0.424,3.467 c -0.123,0 -0.242,0 -0.356,0.003 -0.115,10e-4 -0.217,0.003 -0.308,0.003 -0.159,0 -0.296,0.001 -0.411,0.003 -0.115,0.002 -0.225,0.007 -0.331,0.015 0.008,-0.121 0.013,-0.243 0.015,-0.364 0.002,-0.122 0.003,-0.237 0.003,-0.346 0,-0.24 -0.007,-0.48 -0.018,-0.724 0.094,0.009 0.197,0.015 0.31,0.019 0.112,0.004 0.246,0.007 0.402,0.007 0.155,0 0.29,10e-4 0.405,0.002 0.115,0.003 0.209,0.003 0.283,0.003 0.028,0 0.043,-0.018 0.043,-0.056 V 1.655 C 0.461,1.621 0.446,1.604 0.418,1.604 0.34,1.604 0.242,1.606 0.126,1.607 0.009,1.61 -0.127,1.611 -0.283,1.611 c -0.131,0 -0.254,0.003 -0.371,0.009 -0.116,0.007 -0.226,0.014 -0.328,0.022 0.011,-0.277 0.018,-0.543 0.018,-0.799 0,-0.293 -0.007,-0.581 -0.018,-0.862 0.074,0.004 0.144,0.008 0.212,0.009 0.067,0.003 0.139,0.005 0.217,0.007 C -0.475,-0.001 -0.392,0 -0.304,0 H 0"
             style="fill:#68737a;fill-opacity:1;fill-rule:nonzero;stroke:none"
             id="path392" />
        </g>
        <g
           id="g394"
           transform="translate(266.886,35.7381)">
          <path
             d="M 0,0 C 0.279,0 0.496,0.067 0.654,0.199 0.812,0.331 0.89,0.501 0.89,0.711 0.89,0.841 0.867,0.95 0.82,1.038 0.772,1.126 0.704,1.203 0.614,1.268 0.524,1.333 0.414,1.394 0.283,1.45 0.151,1.507 0.004,1.571 -0.159,1.643 c -0.148,0.058 -0.287,0.124 -0.418,0.198 -0.131,0.073 -0.247,0.16 -0.35,0.26 -0.102,0.101 -0.183,0.218 -0.242,0.353 -0.06,0.134 -0.09,0.292 -0.09,0.472 0,0.159 0.031,0.314 0.092,0.465 0.062,0.151 0.154,0.285 0.277,0.403 0.123,0.117 0.274,0.211 0.454,0.283 0.18,0.071 0.387,0.107 0.62,0.107 0.422,0 0.783,-0.103 1.081,-0.308 C 1.294,3.855 1.311,3.832 1.317,3.809 1.323,3.787 1.326,3.756 1.326,3.718 V 3.29 C 1.326,3.232 1.302,3.202 1.253,3.202 1.224,3.202 1.197,3.215 1.173,3.24 0.886,3.53 0.543,3.674 0.141,3.674 -0.112,3.674 -0.305,3.606 -0.439,3.47 -0.572,3.334 -0.638,3.171 -0.638,2.982 c 0,-0.121 0.025,-0.225 0.077,-0.311 0.051,-0.086 0.118,-0.16 0.202,-0.224 0.084,-0.063 0.182,-0.119 0.295,-0.17 0.112,-0.05 0.23,-0.1 0.353,-0.15 C 0.493,2.047 0.673,1.965 0.826,1.878 0.98,1.792 1.106,1.696 1.207,1.589 1.307,1.482 1.382,1.363 1.434,1.23 1.485,1.098 1.51,0.948 1.51,0.78 1.51,0.579 1.473,0.4 1.397,0.243 1.321,0.085 1.217,-0.048 1.083,-0.157 0.951,-0.266 0.794,-0.349 0.614,-0.406 0.434,-0.462 0.238,-0.49 0.025,-0.49 c -0.148,0 -0.279,0.007 -0.396,0.022 -0.117,0.014 -0.224,0.038 -0.322,0.072 -0.099,0.034 -0.193,0.074 -0.283,0.123 -0.09,0.048 -0.182,0.108 -0.276,0.179 -0.021,0.021 -0.036,0.042 -0.046,0.063 -0.011,0.02 -0.016,0.048 -0.016,0.082 v 0.346 c 0,0.067 0.021,0.1 0.062,0.1 0.024,0 0.051,-0.014 0.08,-0.043 0.18,-0.147 0.366,-0.259 0.558,-0.337 C -0.422,0.039 -0.217,0 0,0"
             style="fill:#68737a;fill-opacity:1;fill-rule:nonzero;stroke:none"
             id="path396" />
        </g>
        <g
           id="g398"
           transform="translate(271.5408,35.392)">
          <path
             d="M 0,0 C 0,-0.012 -0.006,-0.025 -0.018,-0.038 -0.031,-0.05 -0.043,-0.056 -0.055,-0.056 h -0.509 c -0.017,0 -0.03,0.006 -0.041,0.018 C -0.615,-0.025 -0.62,-0.012 -0.62,0 v 4.323 c 0,0.041 0.019,0.062 0.056,0.062 h 0.509 c 0.012,0 0.024,-0.006 0.037,-0.019 C -0.006,4.354 0,4.339 0,4.323 V 3.29 C 0,3.156 -0.001,3.023 -0.003,2.891 -0.005,2.759 -0.01,2.632 -0.018,2.511 H 0.08 c 0.057,0 0.167,0.079 0.328,0.239 0.162,0.159 0.36,0.371 0.593,0.635 0.131,0.147 0.27,0.304 0.418,0.472 0.147,0.168 0.296,0.327 0.448,0.478 0.032,0.033 0.068,0.05 0.104,0.05 h 0.613 c 0.034,0 0.05,-0.021 0.05,-0.062 C 2.634,4.289 2.621,4.265 2.597,4.253 2.552,4.228 2.491,4.181 2.413,4.112 2.335,4.043 2.245,3.957 2.142,3.857 2.041,3.756 1.928,3.642 1.805,3.514 1.682,3.386 1.554,3.251 1.419,3.108 1.25,2.937 1.094,2.78 0.948,2.64 0.803,2.499 0.696,2.408 0.626,2.366 0.659,2.353 0.705,2.321 0.765,2.268 0.823,2.216 0.893,2.15 0.973,2.07 1.053,1.99 1.142,1.898 1.24,1.793 1.339,1.689 1.443,1.578 1.554,1.46 1.689,1.313 1.825,1.167 1.965,1.019 2.104,0.873 2.237,0.738 2.364,0.614 2.491,0.49 2.603,0.384 2.702,0.296 2.8,0.208 2.873,0.151 2.923,0.126 2.955,0.109 2.972,0.08 2.972,0.038 2.972,-0.025 2.955,-0.056 2.923,-0.056 H 2.272 c -0.02,0 -0.042,0.005 -0.064,0.016 C 2.185,-0.03 2.165,-0.018 2.149,-0.006 1.973,0.162 1.792,0.346 1.605,0.548 1.419,0.749 1.243,0.95 1.075,1.151 0.96,1.286 0.852,1.41 0.749,1.526 0.647,1.641 0.553,1.741 0.467,1.825 0.381,1.908 0.305,1.973 0.239,2.02 0.174,2.066 0.123,2.089 0.086,2.089 h -0.11 C -0.016,1.959 -0.01,1.818 -0.006,1.668 -0.002,1.517 0,1.368 0,1.22 Z"
             style="fill:#68737a;fill-opacity:1;fill-rule:nonzero;stroke:none"
             id="path400" />
        </g>
        <g
           id="g402"
           transform="translate(278.4066,35.82)">
          <path
             d="m 0,0 c 0.196,0 0.398,0.002 0.604,0.006 0.208,0.005 0.402,0.007 0.587,0.007 0.029,0 0.043,-0.019 0.043,-0.057 L 1.185,-0.434 C 1.177,-0.467 1.163,-0.484 1.142,-0.484 h -2.671 c -0.016,0 -0.029,0.006 -0.04,0.018 -0.01,0.013 -0.015,0.026 -0.015,0.038 v 4.323 c 0,0.041 0.019,0.062 0.055,0.062 H 1.05 c 0.025,0 0.04,-0.019 0.049,-0.056 L 1.142,3.511 C 1.142,3.477 1.127,3.46 1.099,3.46 1.005,3.46 0.9,3.461 0.783,3.463 0.666,3.466 0.546,3.467 0.424,3.467 c -0.123,0 -0.242,0 -0.356,0.003 -0.115,10e-4 -0.217,0.003 -0.308,0.003 -0.159,0 -0.296,0.001 -0.411,0.003 -0.115,0.002 -0.225,0.007 -0.331,0.015 0.008,-0.121 0.013,-0.243 0.015,-0.364 0.002,-0.122 0.003,-0.237 0.003,-0.346 0,-0.24 -0.007,-0.48 -0.018,-0.724 0.094,0.009 0.197,0.015 0.31,0.019 0.112,0.004 0.246,0.007 0.402,0.007 0.155,0 0.29,10e-4 0.405,0.002 0.114,0.003 0.209,0.003 0.283,0.003 0.028,0 0.043,-0.018 0.043,-0.056 V 1.655 C 0.461,1.621 0.446,1.604 0.418,1.604 0.34,1.604 0.242,1.606 0.126,1.607 0.009,1.61 -0.127,1.611 -0.283,1.611 c -0.131,0 -0.254,0.003 -0.371,0.009 -0.116,0.007 -0.226,0.014 -0.328,0.022 0.011,-0.277 0.018,-0.543 0.018,-0.799 0,-0.293 -0.007,-0.581 -0.018,-0.862 0.073,0.004 0.144,0.008 0.212,0.009 0.067,0.003 0.139,0.005 0.217,0.007 C -0.475,-0.001 -0.392,0 -0.304,0 Z M -0.252,4.303 C -0.264,4.29 -0.28,4.279 -0.298,4.269 -0.316,4.258 -0.331,4.253 -0.344,4.253 H -0.59 c -0.016,0 -0.027,0.006 -0.034,0.019 -0.006,0.013 -0.004,0.025 0.004,0.038 l 0.774,0.88 c 0.008,0.013 0.021,0.026 0.039,0.041 0.019,0.015 0.036,0.022 0.053,0.022 h 0.466 c 0.016,0 0.027,-0.009 0.031,-0.025 0.003,-0.017 0,-0.032 -0.012,-0.044 z"
             style="fill:#68737a;fill-opacity:1;fill-rule:nonzero;stroke:none"
             id="path404" />
        </g>
        <g
           id="g406"
           transform="translate(286.2072,37.1603)">
          <path
             d="m 0,0 c -0.033,0 -0.085,0.001 -0.157,0.003 -0.071,0.002 -0.136,0.005 -0.193,0.009 0.008,-0.133 0.014,-0.272 0.018,-0.415 0.005,-0.142 0.006,-0.287 0.006,-0.434 v -0.931 c 0,-0.012 -0.006,-0.025 -0.018,-0.038 -0.012,-0.012 -0.024,-0.018 -0.037,-0.018 H -0.89 c -0.017,0 -0.03,0.006 -0.04,0.018 -0.011,0.013 -0.016,0.026 -0.016,0.038 v 4.303 c 0,0.021 0.006,0.04 0.019,0.057 0.012,0.016 0.024,0.025 0.037,0.025 H 0.362 C 0.612,2.617 0.828,2.585 1.013,2.52 1.197,2.455 1.349,2.366 1.467,2.255 1.586,2.144 1.674,2.013 1.731,1.862 1.789,1.711 1.817,1.55 1.817,1.377 1.817,1.206 1.782,1.048 1.713,0.903 1.643,0.758 1.551,0.632 1.437,0.525 1.322,0.418 1.191,0.332 1.044,0.267 0.896,0.202 0.743,0.163 0.583,0.15 0.661,0.134 0.747,0.094 0.841,0.031 0.935,-0.031 1.034,-0.109 1.138,-0.201 1.243,-0.294 1.35,-0.398 1.461,-0.516 1.572,-0.633 1.682,-0.757 1.792,-0.887 1.964,-1.085 2.11,-1.25 2.231,-1.384 c 0.121,-0.134 0.215,-0.218 0.28,-0.251 0.024,-0.009 0.037,-0.038 0.037,-0.089 0,-0.067 -0.027,-0.1 -0.08,-0.1 H 1.903 c -0.041,0 -0.08,0.013 -0.117,0.041 C 1.749,-1.756 1.697,-1.694 1.627,-1.598 1.492,-1.434 1.35,-1.26 1.203,-1.073 1.056,-0.887 0.912,-0.713 0.77,-0.553 0.629,-0.394 0.493,-0.262 0.362,-0.158 0.231,-0.052 0.11,0 0,0 m 0.288,2.139 c -0.213,0 -0.423,0.006 -0.632,0.019 0.004,-0.059 0.007,-0.131 0.01,-0.214 0.001,-0.084 0.004,-0.17 0.005,-0.258 0.003,-0.088 0.003,-0.175 0.003,-0.261 V 1.201 c 0,-0.26 -0.006,-0.515 -0.018,-0.767 0.057,0.005 0.126,0.009 0.206,0.013 0.079,0.004 0.162,0.006 0.248,0.006 0.369,0 0.637,0.08 0.805,0.242 0.168,0.162 0.252,0.383 0.252,0.664 0,0.239 -0.072,0.429 -0.215,0.569 -0.144,0.14 -0.365,0.211 -0.664,0.211"
             style="fill:#68737a;fill-opacity:1;fill-rule:nonzero;stroke:none"
             id="path408" />
        </g>
        <g
           id="g410"
           transform="translate(292.5385,35.82)">
          <path
             d="m 0,0 c 0.196,0 0.398,0.002 0.604,0.006 0.208,0.005 0.402,0.007 0.587,0.007 0.029,0 0.043,-0.019 0.043,-0.057 L 1.185,-0.434 C 1.177,-0.467 1.163,-0.484 1.142,-0.484 h -2.671 c -0.016,0 -0.029,0.006 -0.04,0.018 -0.01,0.013 -0.015,0.026 -0.015,0.038 v 4.323 c 0,0.041 0.018,0.062 0.055,0.062 H 1.05 c 0.025,0 0.04,-0.019 0.049,-0.056 L 1.142,3.511 C 1.142,3.477 1.127,3.46 1.099,3.46 1.005,3.46 0.9,3.461 0.783,3.463 0.666,3.466 0.546,3.467 0.424,3.467 c -0.123,0 -0.242,0 -0.356,0.003 -0.115,10e-4 -0.217,0.003 -0.308,0.003 -0.159,0 -0.296,0.001 -0.411,0.003 -0.115,0.002 -0.225,0.007 -0.331,0.015 0.008,-0.121 0.013,-0.243 0.015,-0.364 0.002,-0.122 0.003,-0.237 0.003,-0.346 0,-0.24 -0.007,-0.48 -0.018,-0.724 0.094,0.009 0.197,0.015 0.31,0.019 0.112,0.004 0.246,0.007 0.402,0.007 0.155,0 0.29,10e-4 0.405,0.002 0.114,0.003 0.209,0.003 0.283,0.003 0.028,0 0.043,-0.018 0.043,-0.056 V 1.655 C 0.461,1.621 0.446,1.604 0.418,1.604 0.34,1.604 0.242,1.606 0.126,1.607 0.009,1.61 -0.127,1.611 -0.283,1.611 c -0.131,0 -0.254,0.003 -0.371,0.009 -0.116,0.007 -0.226,0.014 -0.328,0.022 0.011,-0.277 0.018,-0.543 0.018,-0.799 0,-0.293 -0.007,-0.581 -0.018,-0.862 0.073,0.004 0.144,0.008 0.212,0.009 0.067,0.003 0.139,0.005 0.217,0.007 C -0.475,-0.001 -0.392,0 -0.304,0 H 0"
             style="fill:#68737a;fill-opacity:1;fill-rule:nonzero;stroke:none"
             id="path412" />
        </g>
        <g
           id="g414"
           transform="translate(297.341,37.0341)">
          <path
             d="m 0,0 c -0.245,0 -0.444,0.006 -0.595,0.019 0.008,-0.126 0.013,-0.262 0.015,-0.408 0.002,-0.148 0.003,-0.294 0.003,-0.441 v -0.812 c 0,-0.012 -0.006,-0.025 -0.018,-0.038 -0.013,-0.012 -0.025,-0.018 -0.037,-0.018 h -0.51 c -0.016,0 -0.029,0.006 -0.04,0.018 -0.01,0.013 -0.015,0.026 -0.015,0.038 v 4.303 c 0,0.021 0.006,0.04 0.019,0.057 0.012,0.016 0.024,0.025 0.036,0.025 H 0.067 C 0.334,2.743 0.564,2.705 0.758,2.63 0.953,2.554 1.112,2.454 1.237,2.328 1.362,2.202 1.456,2.055 1.517,1.887 1.578,1.72 1.609,1.544 1.609,1.36 1.609,1.154 1.575,0.968 1.507,0.802 1.44,0.637 1.339,0.494 1.203,0.375 1.068,0.255 0.9,0.162 0.7,0.098 0.499,0.033 0.266,0 0,0 m -0.042,0.472 c 0.331,0 0.58,0.073 0.745,0.217 0.166,0.145 0.249,0.37 0.249,0.676 0,0.127 -0.016,0.245 -0.049,0.356 C 0.87,1.832 0.818,1.927 0.746,2.007 0.674,2.087 0.582,2.149 0.467,2.196 0.352,2.242 0.213,2.265 0.049,2.265 -0.057,2.265 -0.164,2.266 -0.273,2.269 -0.382,2.27 -0.489,2.276 -0.595,2.284 -0.591,2.225 -0.588,2.158 -0.586,2.083 -0.584,2.007 -0.582,1.928 -0.58,1.847 -0.578,1.765 -0.577,1.685 -0.577,1.605 V 1.391 1.161 C -0.577,1.08 -0.578,0.995 -0.58,0.909 -0.582,0.824 -0.584,0.742 -0.586,0.664 -0.588,0.586 -0.591,0.518 -0.595,0.459 c 0.089,0.009 0.184,0.013 0.282,0.013 h 0.271"
             style="fill:#68737a;fill-opacity:1;fill-rule:nonzero;stroke:none"
             id="path416" />
        </g>
        <g
           id="g418"
           transform="translate(301.3943,39.7146)">
          <path
             d="m 0,0 c 0,0.042 0.019,0.063 0.055,0.063 h 0.516 c 0.012,0 0.025,-0.007 0.037,-0.02 C 0.62,0.031 0.627,0.017 0.627,0 v -2.781 c 0,-0.357 0.102,-0.633 0.31,-0.827 0.206,-0.195 0.493,-0.293 0.862,-0.293 0.384,0 0.68,0.089 0.887,0.268 0.207,0.178 0.31,0.451 0.31,0.82 V 0 c 0,0.042 0.019,0.063 0.056,0.063 h 0.497 c 0.012,0 0.024,-0.007 0.037,-0.02 C 3.598,0.031 3.604,0.017 3.604,0 V -2.882 C 3.604,-3.121 3.56,-3.338 3.472,-3.533 3.384,-3.728 3.261,-3.894 3.104,-4.03 2.946,-4.166 2.756,-4.272 2.533,-4.347 2.31,-4.423 2.063,-4.461 1.793,-4.461 c -0.266,0 -0.51,0.038 -0.731,0.114 -0.221,0.075 -0.41,0.182 -0.567,0.32 -0.158,0.139 -0.28,0.306 -0.366,0.504 C 0.043,-3.326 0,-3.106 0,-2.862 Z"
             style="fill:#68737a;fill-opacity:1;fill-rule:nonzero;stroke:none"
             id="path420" />
        </g>
        <g
           id="g422"
           transform="translate(309.334,35.808)">
          <path
             d="M 0,0 C 0.585,0 0.878,0.26 0.878,0.78 0.878,0.91 0.857,1.028 0.813,1.135 0.77,1.242 0.705,1.333 0.617,1.409 0.529,1.484 0.415,1.543 0.273,1.585 c -0.141,0.042 -0.31,0.062 -0.506,0.062 -0.119,0 -0.241,0.002 -0.366,0.004 -0.125,0.002 -0.244,0.007 -0.359,0.016 0.012,-0.273 0.018,-0.55 0.018,-0.83 0,-0.282 -0.006,-0.567 -0.018,-0.856 0.156,0.008 0.315,0.013 0.479,0.016 C -0.316,-0.002 -0.156,0 0,0 m -1.504,-0.472 c -0.017,0 -0.03,0.006 -0.04,0.018 -0.011,0.013 -0.016,0.026 -0.016,0.038 v 4.323 c 0,0.041 0.019,0.062 0.056,0.062 h 1.313 C 0.088,3.969 0.318,3.937 0.5,3.872 0.682,3.807 0.828,3.724 0.936,3.623 1.044,3.523 1.12,3.41 1.163,3.286 1.206,3.163 1.228,3.043 1.228,2.925 1.228,2.791 1.202,2.669 1.151,2.56 1.1,2.451 1.031,2.353 0.945,2.268 0.86,2.182 0.76,2.11 0.648,2.054 0.535,1.997 0.417,1.954 0.294,1.924 0.446,1.912 0.595,1.875 0.743,1.815 0.89,1.754 1.022,1.671 1.138,1.566 1.255,1.461 1.349,1.336 1.418,1.188 1.488,1.042 1.522,0.88 1.522,0.704 1.522,0.348 1.397,0.063 1.145,-0.151 0.893,-0.365 0.542,-0.472 0.092,-0.472 Z M -0.4,2.082 c 0.344,0 0.594,0.067 0.749,0.201 C 0.506,2.418 0.583,2.59 0.583,2.799 0.583,3.034 0.514,3.21 0.374,3.327 0.235,3.445 0.017,3.504 -0.283,3.504 H -0.62 c -0.119,0 -0.232,0.004 -0.338,0.013 0.012,-0.248 0.018,-0.487 0.018,-0.718 0,-0.122 0,-0.246 -0.003,-0.371 C -0.945,2.302 -0.95,2.18 -0.958,2.063 c 0.09,0.009 0.182,0.013 0.276,0.016 0.095,0.002 0.189,0.003 0.282,0.003"
             style="fill:#68737a;fill-opacity:1;fill-rule:nonzero;stroke:none"
             id="path424" />
        </g>
        <g
           id="g426"
           transform="translate(314.0258,35.808)">
          <path
             d="m 0,0 c 0.184,0.008 0.368,0.015 0.553,0.022 0.183,0.006 0.366,0.009 0.546,0.009 0.192,0 0.382,0.001 0.568,0.004 0.186,10e-4 0.371,0.002 0.556,0.002 0.033,0 0.048,-0.016 0.048,-0.05 L 2.229,-0.416 c 0,-0.038 -0.017,-0.056 -0.05,-0.056 H -0.54 c -0.017,0 -0.03,0.006 -0.04,0.018 -0.011,0.013 -0.016,0.026 -0.016,0.038 v 4.323 c 0,0.041 0.019,0.062 0.056,0.062 h 0.509 c 0.013,0 0.025,-0.006 0.037,-0.019 C 0.018,3.938 0.024,3.923 0.024,3.907 V 0.911 C 0.024,0.765 0.023,0.617 0.018,0.468 0.014,0.319 0.008,0.163 0,0"
             style="fill:#68737a;fill-opacity:1;fill-rule:nonzero;stroke:none"
             id="path428" />
        </g>
        <g
           id="g430"
           transform="translate(319.1902,35.392)">
          <path
             d="M 0,0 C 0,-0.012 -0.006,-0.025 -0.018,-0.038 -0.031,-0.05 -0.043,-0.056 -0.055,-0.056 h -0.51 c -0.016,0 -0.029,0.006 -0.04,0.018 C -0.615,-0.025 -0.62,-0.012 -0.62,0 v 4.323 c 0,0.041 0.019,0.062 0.055,0.062 h 0.51 c 0.012,0 0.024,-0.006 0.037,-0.019 C -0.006,4.354 0,4.339 0,4.323 Z"
             style="fill:#68737a;fill-opacity:1;fill-rule:nonzero;stroke:none"
             id="path432" />
        </g>
        <g
           id="g434"
           transform="translate(322.6425,35.392)">
          <path
             d="M 0,0 C 0,-0.012 -0.006,-0.025 -0.018,-0.038 -0.031,-0.05 -0.043,-0.056 -0.055,-0.056 h -0.51 c -0.016,0 -0.029,0.006 -0.04,0.018 C -0.615,-0.025 -0.62,-0.012 -0.62,0 v 4.323 c 0,0.041 0.019,0.062 0.055,0.062 h 0.51 c 0.012,0 0.024,-0.006 0.037,-0.019 C -0.006,4.354 0,4.339 0,4.323 V 3.29 C 0,3.156 -0.001,3.023 -0.003,2.891 -0.005,2.759 -0.01,2.632 -0.018,2.511 H 0.08 c 0.057,0 0.166,0.079 0.328,0.239 0.162,0.159 0.36,0.371 0.593,0.635 0.131,0.147 0.27,0.304 0.418,0.472 0.146,0.168 0.296,0.327 0.448,0.478 0.032,0.033 0.068,0.05 0.104,0.05 h 0.613 c 0.033,0 0.05,-0.021 0.05,-0.062 C 2.634,4.289 2.621,4.265 2.597,4.253 2.552,4.228 2.491,4.181 2.413,4.112 2.335,4.043 2.245,3.957 2.142,3.857 2.04,3.756 1.928,3.642 1.805,3.514 1.682,3.386 1.554,3.251 1.419,3.108 1.251,2.937 1.094,2.78 0.948,2.64 0.803,2.499 0.696,2.408 0.626,2.366 0.659,2.353 0.705,2.321 0.765,2.268 0.823,2.216 0.893,2.15 0.973,2.07 1.053,1.99 1.142,1.898 1.24,1.793 1.339,1.689 1.443,1.578 1.554,1.46 1.689,1.313 1.825,1.167 1.965,1.019 2.104,0.873 2.237,0.738 2.364,0.614 2.491,0.49 2.603,0.384 2.701,0.296 2.8,0.208 2.873,0.151 2.923,0.126 2.955,0.109 2.972,0.08 2.972,0.038 2.972,-0.025 2.955,-0.056 2.923,-0.056 H 2.272 c -0.021,0 -0.043,0.005 -0.064,0.016 C 2.185,-0.03 2.165,-0.018 2.149,-0.006 1.973,0.162 1.792,0.346 1.605,0.548 1.419,0.749 1.243,0.95 1.075,1.151 0.96,1.286 0.852,1.41 0.749,1.526 0.647,1.641 0.553,1.741 0.467,1.825 0.381,1.908 0.305,1.973 0.239,2.02 0.174,2.066 0.123,2.089 0.086,2.089 h -0.11 C -0.017,1.959 -0.01,1.818 -0.006,1.668 -0.002,1.517 0,1.368 0,1.22 Z"
             style="fill:#68737a;fill-opacity:1;fill-rule:nonzero;stroke:none"
             id="path436" />
        </g>
        <g
           id="g438"
           transform="translate(329.7349,35.392)">
          <path
             d="M 0,0 C 0,-0.012 -0.005,-0.025 -0.018,-0.038 -0.031,-0.05 -0.042,-0.056 -0.055,-0.056 h -0.509 c -0.017,0 -0.03,0.006 -0.04,0.018 -0.011,0.013 -0.015,0.026 -0.015,0.038 v 1.882 l -1.757,2.403 c -0.02,0.025 -0.028,0.048 -0.024,0.069 0.004,0.021 0.022,0.031 0.055,0.031 h 0.571 c 0.045,0 0.08,-0.023 0.104,-0.069 L -0.669,2.951 C -0.595,2.85 -0.527,2.747 -0.463,2.643 -0.4,2.537 -0.344,2.429 -0.294,2.315 c 0.061,0.122 0.124,0.233 0.187,0.334 0.063,0.101 0.13,0.199 0.2,0.296 L 1.099,4.316 C 1.12,4.345 1.14,4.364 1.16,4.372 1.181,4.381 1.204,4.385 1.228,4.385 h 0.516 c 0.033,0 0.051,-0.01 0.055,-0.031 C 1.804,4.333 1.795,4.31 1.775,4.285 L 0,1.882 Z"
             style="fill:#68737a;fill-opacity:1;fill-rule:nonzero;stroke:none"
             id="path440" />
        </g>
      </g>
    </g>
  </g>
</svg>
